SplineFontDB: 3.0
FontName: UniOl-BoldItalic
FullName: UniOl Bold Italic
FamilyName: UniOl
Weight: Bold
Copyright: Copyright (c) 2020 -2025, Dr Anirban Mitra
UComments: "2020-8-7: Created with FontForge (http://fontforge.org)"
Version: 002.000
ItalicAngle: 0
UnderlinePosition: -100
UnderlineWidth: 50
Ascent: 800
Descent: 200
InvalidEm: 0
LayerCount: 2
Layer: 0 1 "Back" 1
Layer: 1 1 "Fore" 0
XUID: [1021 162 -509335450 8305068]
StyleMap: 0x0021
FSType: 0
OS2Version: 0
OS2_WeightWidthSlopeOnly: 0
OS2_UseTypoMetrics: 1
CreationTime: 1596786230
ModificationTime: 1749715987
PfmFamily: 33
TTFWeight: 700
TTFWidth: 5
LineGap: 90
VLineGap: 0
OS2TypoAscent: 0
OS2TypoAOffset: 1
OS2TypoDescent: 0
OS2TypoDOffset: 1
OS2TypoLinegap: 90
OS2WinAscent: 0
OS2WinAOffset: 1
OS2WinDescent: 0
OS2WinDOffset: 1
HheadAscent: 0
HheadAOffset: 1
HheadDescent: 0
HheadDOffset: 1
OS2FamilyClass: 2063
OS2Vendor: 'anir'
MarkAttachClasses: 1
DEI: 91125

StartChar: uni1C50
Encoding: 256 7248 0
Width: 1150
VWidth: 2048
Flags: W
LayerCount: 2
Fore
SplineSet
488 408 m 0,0,1
 515 524 515 524 579.5 611 c 128,-1,2
 644 698 644 698 732 735 c 0,3,4
 787 758 787 758 849 759 c 2,5,6
 850 759 850 759 852 759 c 0,7,8
 973 759 973 759 1030 663 c 0,9,10
 1086 567 1086 567 1049 408 c 0,11,12
 1022 291 1022 291 958 205 c 0,13,14
 895 120 895 120 805 79 c 0,15,16
 746 53 746 53 686 53 c 2,17,18
 562 54 562 54 507 153 c 0,19,20
 452 252 452 252 488 408 c 0,0,1
618 408 m 0,21,22
 599 326 599 326 611 266 c 0,23,24
 622 208 622 208 659 183 c 0,25,26
 681 167 681 167 713 167 c 0,27,28
 775 167 775 167 831 229 c 0,29,30
 892 297 892 297 919 408 c 0,31,32
 938 490 938 490 926 548 c 0,33,34
 915 606 915 606 876 631 c 0,35,36
 852 646 852 646 823 646 c 0,37,38
 761 646 761 646 705 586 c 0,39,40
 644 519 644 519 618 408 c 0,21,22
EndSplineSet
EndChar

StartChar: uni1C51
Encoding: 257 7249 1
Width: 1009
VWidth: 2048
Flags: W
LayerCount: 2
Fore
SplineSet
947 756 m 1,0,-1
 1077 756 l 1,1,-1
 994 396 l 1,2,-1
 961 396 l 1,3,-1
 727 590 l 1,4,5
 698 534 698 534 678 451 c 0,6,7
 653 344 653 344 680 272 c 0,8,9
 705 200 705 200 768 147 c 0,10,11
 816 108 816 108 890 77 c 2,12,-1
 903 71 l 1,13,-1
 899 51 l 1,14,-1
 897 44 l 1,15,-1
 828 -40 l 1,16,-1
 813 -35 l 2,17,18
 736 -10 736 -10 678 33 c 0,19,20
 621 75 621 75 583.5 139 c 128,-1,21
 546 203 546 203 536.5 283 c 128,-1,22
 527 363 527 363 548 455 c 0,23,24
 575 572 575 572 643 688 c 0,25,26
 666 727 666 727 694 763 c 2,27,-1
 703 775 l 1,28,-1
 720 775 l 1,29,-1
 726 775 l 1,30,-1
 915 616 l 1,31,-1
 947 756 l 1,0,-1
EndSplineSet
EndChar

StartChar: uni1C52
Encoding: 258 7250 2
Width: 985
VWidth: 2048
Flags: W
LayerCount: 2
Fore
SplineSet
803 23 m 2,0,1
 727 -82 727 -82 643 -134 c 128,-1,2
 559 -186 559 -186 470 -186 c 0,3,4
 382 -186 382 -186 327 -145 c 0,5,6
 271 -104 271 -104 255 -34 c 0,7,8
 244 14 244 14 257 73 c 0,9,10
 268 120 268 120 289 155 c 0,11,12
 329 224 329 224 429 322 c 0,13,14
 470 362 470 362 525 413 c 1,15,16
 455 460 455 460 451 538 c 0,17,18
 449 566 449 566 455 592 c 0,19,20
 468 650 468 650 504 693 c 128,-1,21
 540 736 540 736 588 758 c 0,22,23
 625 775 625 775 669 775 c 128,-1,24
 713 775 713 775 743 761 c 0,25,26
 803 733 803 733 811 661 c 0,27,28
 815 626 815 626 806 585 c 0,29,30
 792 524 792 524 747 468 c 0,31,32
 718 433 718 433 642 360 c 0,33,34
 565 286 565 286 521 241 c 0,35,36
 433 154 433 154 408 110 c 0,37,38
 396 89 396 89 391 69 c 0,39,40
 378 11 378 11 405 -19 c 0,41,42
 434 -51 434 -51 495 -51 c 0,43,44
 543 -51 543 -51 582 -30 c 0,45,46
 648 6 648 6 711 101 c 2,47,-1
 721 115 l 1,48,-1
 738 115 l 1,49,-1
 747 115 l 1,50,-1
 816 41 l 1,51,-1
 803 23 l 2,0,1
676 585 m 0,52,53
 682 613 682 613 674 629 c 0,54,55
 666 644 666 644 645 644 c 0,56,57
 644 644 644 644 642 644 c 0,58,59
 619 644 619 644 602.5 629 c 128,-1,60
 586 614 586 614 580 588 c 0,61,62
 572 555 572 555 601 528 c 0,63,64
 611 519 611 519 628 511 c 1,65,66
 631 514 631 514 632.5 515 c 128,-1,67
 634 516 634 516 640 523 c 0,68,69
 646 529 646 529 649 533 c 0,70,71
 652 536 652 536 656 542 c 0,72,73
 661 548 661 548 662.5 552 c 128,-1,74
 664 556 664 556 668 562 c 0,75,76
 673 572 673 572 676 585 c 0,52,53
EndSplineSet
EndChar

StartChar: uni1C53
Encoding: 259 7251 3
Width: 1029
VWidth: 2048
Flags: W
LayerCount: 2
Fore
SplineSet
393 603 m 0,0,1
 406 661 406 661 442.5 704 c 128,-1,2
 479 747 479 747 527 769 c 0,3,4
 564 786 564 786 607.5 786 c 128,-1,5
 651 786 651 786 681 771 c 0,6,7
 741 743 741 743 750 671 c 0,8,9
 754 636 754 636 745 594 c 0,10,11
 731 533 731 533 687 476 c 1,12,-1
 737 455 l 1,13,-1
 809 769 l 1,14,-1
 942 769 l 1,15,-1
 828 274 l 1,16,-1
 802 274 l 1,17,-1
 797 274 l 1,18,-1
 580 370 l 1,19,20
 496 295 496 295 458 249 c 0,21,22
 426 210 426 210 416.5 170 c 128,-1,23
 407 130 407 130 418 103 c 0,24,25
 430 76 430 76 461 52 c 0,26,27
 503 20 503 20 563 -2 c 0,28,29
 623 -23 623 -23 733 -48 c 1,30,-1
 728 -71 l 1,31,-1
 726 -78 l 1,32,-1
 653 -173 l 1,33,-1
 638 -170 l 2,34,35
 438 -133 438 -133 349 -52 c 0,36,37
 251 37 251 37 282 175 c 0,38,39
 297 238 297 238 339 296 c 128,-1,40
 381 354 381 354 462 427 c 1,41,42
 393 474 393 474 389 548 c 0,43,44
 387 576 387 576 393 603 c 0,0,1
581 655 m 0,45,46
 565 655 565 655 553 648 c 0,47,48
 528 635 528 635 520 602 c 0,49,50
 515 581 515 581 520 571 c 0,51,52
 533 545 533 545 570 525 c 1,53,54
 587 543 587 543 598 559 c 128,-1,55
 609 575 609 575 614 595 c 0,56,57
 621 624 621 624 612 639 c 0,58,59
 603 655 603 655 581 655 c 0,45,46
EndSplineSet
EndChar

StartChar: uni1C54
Encoding: 260 7252 4
Width: 987
VWidth: 2048
Flags: W
LayerCount: 2
Fore
SplineSet
810 209 m 0,0,1
 790 122 790 122 739 59 c 128,-1,2
 688 -4 688 -4 619 -33 c 0,3,4
 570 -54 570 -54 517 -54 c 0,5,6
 398 -54 398 -54 340 38 c 0,7,8
 279 134 279 134 316 292 c 0,9,10
 354 457 354 457 472 615 c 0,11,12
 601 786 601 786 792 909 c 2,13,-1
 810 920 l 1,14,-1
 881 845 l 1,15,-1
 878 833 l 1,16,-1
 875 819 l 1,17,-1
 863 811 l 2,18,19
 687 685 687 685 576 541 c 1,20,21
 563 469 563 469 572 417 c 0,22,23
 581 365 581 365 614 341 c 0,24,25
 633 327 633 327 659 327 c 0,26,27
 715 327 715 327 771 370 c 2,28,-1
 779 376 l 1,29,-1
 802 376 l 1,30,-1
 807 366 l 2,31,32
 833 307 833 307 810 209 c 0,0,1
548 86 m 0,33,34
 589 86 589 86 620 109 c 0,35,36
 662 140 662 140 684 200 c 1,37,38
 655 191 655 191 623 191 c 0,39,40
 556 191 556 191 514.5 226 c 128,-1,41
 473 261 473 261 457 316 c 1,42,43
 454 305 454 305 451 294 c 0,44,45
 433 216 433 216 446 164 c 0,46,47
 458 115 458 115 500 97 c 0,48,49
 523 86 523 86 548 86 c 0,33,34
EndSplineSet
EndChar

StartChar: uni1C55
Encoding: 261 7253 5
Width: 1074
VWidth: 2048
Flags: W
LayerCount: 2
Fore
SplineSet
714 176 m 0,0,1
 648 176 648 176 611.5 212 c 128,-1,2
 575 248 575 248 567 308 c 0,3,4
 562 348 562 348 574 398 c 0,5,6
 595 490 595 490 652.5 552 c 128,-1,7
 710 614 710 614 787 645 c 0,8,9
 842 667 842 667 909 672 c 2,10,-1
 926 673 l 1,11,-1
 944 564 l 1,12,-1
 922 540 l 1,13,-1
 911 540 l 2,14,15
 851 538 851 538 806 515 c 128,-1,16
 761 492 761 492 734 452 c 0,17,18
 717 427 717 427 710 396 c 0,19,20
 701 356 701 356 714.5 335 c 128,-1,21
 728 314 728 314 762 314 c 0,22,23
 815 314 815 314 859 347 c 2,24,-1
 867 353 l 1,25,-1
 895 353 l 1,26,-1
 897 337 l 2,27,28
 905 277 905 277 891 219 c 0,29,30
 870 129 870 129 813 63 c 0,31,32
 757 -2 757 -2 683 -32 c 0,33,34
 631 -54 631 -54 574 -54 c 0,35,36
 434 -54 434 -54 375 71 c 128,-1,37
 316 196 316 196 361 394 c 0,38,39
 407 593 407 593 535 786 c 0,40,41
 577 849 577 849 623 903 c 2,42,-1
 642 925 l 1,43,-1
 720 844 l 1,44,-1
 715 822 l 1,45,-1
 710 816 l 2,46,47
 594 670 594 670 531 503 c 0,48,49
 512 453 512 453 501 403 c 0,50,51
 500 397 500 397 498 392 c 0,52,53
 474 287 474 287 485.5 212 c 128,-1,54
 497 137 497 137 544 105 c 0,55,56
 571 86 571 86 611 86 c 0,57,58
 650 86 650 86 684 107 c 0,59,60
 719 128 719 128 740 162 c 0,61,62
 746 171 746 171 750 180 c 1,63,64
 733 176 733 176 714 176 c 0,0,1
EndSplineSet
EndChar

StartChar: uni1C56
Encoding: 262 7254 6
Width: 1019
VWidth: 2048
Flags: W
LayerCount: 2
Fore
SplineSet
481 429 m 0,0,1
 455 315 455 315 521 205 c 128,-1,2
 587 95 587 95 743 -6 c 2,3,-1
 753 -13 l 1,4,-1
 749 -31 l 1,5,-1
 746 -43 l 1,6,-1
 646 -121 l 1,7,-1
 633 -114 l 2,8,9
 457 -8 457 -8 383 132 c 128,-1,10
 309 272 309 272 345 429 c 0,11,12
 379 576 379 576 494 692 c 0,13,14
 522 720 522 720 550 743 c 1,15,16
 549 765 549 765 551 806 c 1,17,-1
 645 859 l 1,18,-1
 651 859 l 1,19,-1
 674 859 l 1,20,21
 673 826 673 826 673 815 c 1,22,23
 737 841 737 841 791 841 c 0,24,25
 854 841 854 841 894.5 810 c 128,-1,26
 935 779 935 779 947 727 c 0,27,28
 955 690 955 690 945 645 c 0,29,30
 930 582 930 582 891 539 c 0,31,32
 851 495 851 495 798 476 c 0,33,34
 764 463 764 463 730 463 c 0,35,36
 669 463 669 463 625 505 c 0,37,38
 591 537 591 537 573 598 c 1,39,40
 503 524 503 524 481 429 c 0,0,1
755 594 m 0,41,42
 771 594 771 594 784 601 c 0,43,44
 811 615 811 615 819 648 c 0,45,46
 825 676 825 676 812 692 c 0,47,48
 799 707 799 707 771 707 c 0,49,50
 769 707 769 707 767 707 c 0,51,52
 731 707 731 707 682 683 c 1,53,54
 692 637 692 637 712 616 c 0,55,56
 730 594 730 594 755 594 c 0,41,42
EndSplineSet
EndChar

StartChar: uni1C57
Encoding: 263 7255 7
Width: 971
VWidth: 2048
Flags: W
LayerCount: 2
Fore
SplineSet
648 627 m 0,0,1
 640 594 640 594 662 567 c 2,2,-1
 667 560 l 1,3,-1
 662 535 l 1,4,-1
 564 457 l 1,5,-1
 397 719 l 1,6,-1
 493 803 l 1,7,-1
 503 803 l 1,8,-1
 506 803 l 1,9,-1
 517 803 l 1,10,-1
 565 710 l 1,11,12
 587 747 587 747 619 772 c 0,13,14
 670 814 670 814 738 814 c 0,15,16
 798 814 798 814 833 784 c 0,17,18
 868 753 868 753 874 700 c 0,19,20
 879 664 879 664 867.5 615 c 128,-1,21
 856 566 856 566 831 530 c 128,-1,22
 806 494 806 494 766 454 c 0,23,24
 686 375 686 375 572 284 c 0,25,26
 519 242 519 242 481.5 209 c 128,-1,27
 444 176 444 176 424 151 c 128,-1,28
 404 126 404 126 397 99 c 0,29,30
 388 60 388 60 405 35 c 0,31,32
 420 9 420 9 453 -3 c 0,33,34
 476 -12 476 -12 506 -12 c 0,35,36
 560 -12 560 -12 611.5 22 c 128,-1,37
 663 56 663 56 719 140 c 2,38,-1
 729 154 l 1,39,-1
 747 154 l 1,40,-1
 755 154 l 1,41,-1
 823 80 l 1,42,-1
 811 62 l 2,43,44
 736 -43 736 -43 652 -95 c 128,-1,45
 568 -147 568 -147 479 -147 c 0,46,47
 391 -147 391 -147 336 -106 c 0,48,49
 280 -65 280 -65 263 3 c 0,50,51
 252 50 252 50 264 105 c 0,52,53
 277 160 277 160 303 197 c 0,54,55
 328 234 328 234 368 271 c 128,-1,56
 408 308 408 308 512.5 393 c 128,-1,57
 617 478 617 478 666 524 c 0,58,59
 695 551 695 551 710 570 c 0,60,61
 733 598 733 598 739 625 c 128,-1,62
 745 652 745 652 736 669 c 0,63,64
 728 683 728 683 708 684 c 0,65,66
 687 684 687 684 670 669 c 0,67,68
 654 654 654 654 648 627 c 0,0,1
EndSplineSet
EndChar

StartChar: uni1C58
Encoding: 264 7256 8
Width: 1239
VWidth: 2048
Flags: W
LayerCount: 2
Fore
SplineSet
589 -119 m 0,0,1
 491 -119 491 -119 427.5 -77 c 128,-1,2
 364 -35 364 -35 345 39 c 0,3,4
 332 89 332 89 347 149 c 2,5,-1
 460 640 l 2,6,7
 475 706 475 706 516 754 c 0,8,9
 557 801 557 801 612 822 c 0,10,11
 647 836 647 836 679 836 c 0,12,13
 744 836 744 836 780 796 c 0,14,15
 797 777 797 777 803 766 c 0,16,17
 810 755 810 755 815 747 c 1,18,19
 862 790 862 790 899 811 c 0,20,21
 944 836 944 836 989 836 c 0,22,23
 991 836 991 836 992 836 c 0,24,25
 1052 836 1052 836 1089 804 c 0,26,27
 1125 771 1125 771 1134 718 c 0,28,29
 1139 681 1139 681 1129 639 c 0,30,31
 1119 596 1119 596 1098 560 c 0,32,33
 1056 492 1056 492 986 464 c 0,34,35
 952 450 952 450 917 450 c 0,36,37
 849 450 849 450 811 491 c 0,38,39
 793 510 793 510 786.5 521 c 128,-1,40
 780 532 780 532 774 540 c 1,41,42
 619 366 619 366 553 279 c 0,43,44
 518 232 518 232 502 200 c 0,45,46
 486 169 486 169 480 146 c 0,47,48
 469 98 469 98 489 70 c 0,49,50
 511 39 511 39 554 25 c 0,51,52
 584 16 584 16 622 16 c 0,53,54
 685 16 685 16 734.5 42 c 128,-1,55
 784 68 784 68 832 116 c 0,56,57
 867 152 867 152 904 204 c 2,58,-1
 914 217 l 1,59,-1
 931 217 l 1,60,-1
 940 217 l 1,61,-1
 1008 143 l 1,62,-1
 996 125 l 2,63,64
 920 17 920 17 830 -43 c 0,65,66
 719 -119 719 -119 589 -119 c 0,0,1
654 702 m 0,67,68
 619 702 619 702 599 667 c 0,69,70
 593 655 593 655 588 640 c 2,71,-1
 546 458 l 1,72,73
 616 541 616 541 720 651 c 1,74,75
 708 671 708 671 693 686 c 0,76,77
 679 702 679 702 654 702 c 0,67,68
940 580 m 0,78,79
 963 580 963 580 980 596 c 128,-1,80
 997 612 997 612 1003 641 c 0,81,82
 1008 661 1008 661 1004.5 675 c 128,-1,83
 1001 689 1001 689 985 697 c 0,84,85
 978 701 978 701 969 702 c 0,86,87
 948 702 948 702 922 684 c 0,88,89
 897 667 897 667 868 640 c 1,90,91
 891 598 891 598 916 585 c 0,92,93
 927 580 927 580 940 580 c 0,78,79
EndSplineSet
EndChar

StartChar: uni1C59
Encoding: 265 7257 9
Width: 1196
VWidth: 2048
Flags: W
LayerCount: 2
Fore
SplineSet
600 293 m 0,0,1
 610 338 610 338 635 375 c 0,2,3
 660 413 660 413 691 437 c 0,4,5
 722 461 722 461 760 476 c 0,6,7
 798 491 798 491 841 492 c 0,8,9
 917 492 917 492 956 448 c 0,10,11
 995 405 995 405 1002 334 c 0,12,13
 1006 287 1006 287 993 230 c 0,14,15
 967 119 967 119 900.5 37 c 128,-1,16
 834 -45 834 -45 747 -85 c 0,17,18
 685 -114 685 -114 615 -114 c 0,19,20
 475 -114 475 -114 396 -4 c 0,21,22
 314 112 314 112 357 298 c 0,23,24
 393 453 393 453 505 593 c 0,25,26
 622 739 622 739 808 850 c 2,27,-1
 824 859 l 1,28,-1
 898 787 l 1,29,-1
 895 774 l 1,30,-1
 891 759 l 1,31,-1
 881 752 l 2,32,33
 714 641 714 641 619 531 c 0,34,35
 519 414 519 414 489.5 287 c 128,-1,36
 460 160 460 160 514 89 c 0,37,38
 560 26 560 26 649 26 c 0,39,40
 710 26 710 26 758 60 c 1,41,42
 666 85 666 85 625 144 c 0,43,44
 580 207 580 207 600 293 c 0,0,1
846 346 m 0,45,46
 834 355 834 355 813 355 c 128,-1,47
 792 355 792 355 772 342 c 128,-1,48
 752 329 752 329 740 309 c 0,49,50
 732 296 732 296 729 284 c 0,51,52
 721 249 721 249 745 220 c 0,53,54
 776 183 776 183 849 173 c 1,55,56
 861 200 861 200 868 230 c 0,57,58
 878 272 878 272 872 303 c 0,59,60
 865 332 865 332 846 346 c 0,45,46
EndSplineSet
EndChar

StartChar: uni1C5A
Encoding: 266 7258 10
Width: 1284
VWidth: 2048
Flags: W
AnchorPoint: "base" 738 -172 basechar 0
AnchorPoint: "top" 738 -172 entry 0
AnchorPoint: "top" 662 934 basechar 0
LayerCount: 2
Fore
SplineSet
796 851 m 0,0,1
 908 851 908 851 985 781 c 0,2,3
 1099 678 1099 678 1094 475 c 0,4,5
 1093 409 1093 409 1076 338 c 0,6,7
 1030 140 1030 140 903 12 c 128,-1,8
 776 -116 776 -116 628 -116 c 0,9,10
 466 -116 466 -116 407 41 c 0,11,12
 387 93 387 93 382 163 c 2,13,-1
 381 178 l 1,14,-1
 919 618 l 1,15,16
 871 712 871 712 774 712 c 0,17,18
 727 712 727 712 683 693 c 0,19,20
 649 679 649 679 621 658 c 1,21,-1
 696 464 l 1,22,-1
 653 414 l 1,23,-1
 391 414 l 1,24,-1
 423 551 l 1,25,-1
 513 551 l 1,26,-1
 463 667 l 1,27,-1
 465 675 l 1,28,-1
 467 687 l 1,29,-1
 474 694 l 2,30,31
 624 851 624 851 796 851 c 0,0,1
530 142 m 1,32,33
 557 23 557 23 656 23 c 0,34,35
 743 23 743 23 821 106 c 0,36,37
 906 197 906 197 939 339 c 0,38,39
 958 420 958 420 954 489 c 1,40,-1
 530 142 l 1,32,33
EndSplineSet
EndChar

StartChar: uni1C5B
Encoding: 267 7259 11
Width: 1339
VWidth: 2048
Flags: W
AnchorPoint: "top" 722 916 basechar 0
AnchorPoint: "base" 714 -176 basechar 0
LayerCount: 2
Fore
SplineSet
384.5 370 m 128,-1,1
 432 576 432 576 568 713 c 128,-1,2
 704 850 704 850 866 851 c 0,3,4
 1029 851 1029 851 1101 713 c 0,5,6
 1174 576 1174 576 1126 370 c 128,-1,7
 1078 164 1078 164 942 24 c 128,-1,8
 806 -116 806 -116 644 -116 c 0,9,10
 481 -116 481 -116 409 24 c 128,-1,0
 337 164 337 164 384.5 370 c 128,-1,1
522 370 m 0,11,12
 504 294 504 294 507 230 c 128,-1,13
 510 166 510 166 532 121 c 0,14,15
 553 75 553 75 589.5 49 c 128,-1,16
 626 23 626 23 675 23 c 0,17,18
 774 23 774 23 862 120 c 0,19,20
 954 221 954 221 988 369 c 0,21,22
 1022 518 1022 518 977 617 c 0,23,24
 933 712 933 712 835 712 c 128,-1,25
 737 712 737 712 647 617 c 0,26,27
 556 519 556 519 522 370 c 0,11,12
EndSplineSet
EndChar

StartChar: uni1C5C
Encoding: 268 7260 12
Width: 1279
VWidth: 2048
Flags: W
AnchorPoint: "top" 718 934 basechar 0
AnchorPoint: "base" 726 -150 basechar 0
LayerCount: 2
Fore
SplineSet
825 712 m 0,0,1
 725 712 725 712 636 617 c 0,2,3
 545 519 545 519 510 368 c 128,-1,4
 475 217 475 217 526 118 c 0,5,6
 575 23 575 23 680 23 c 0,7,8
 740 23 740 23 788 51 c 0,9,10
 856 91 856 91 895 168 c 1,11,12
 844 155 844 155 796 154 c 0,13,14
 721 154 721 154 670 187 c 0,15,16
 620 219 620 219 606 277 c 0,17,18
 597 317 597 317 608 368 c 0,19,20
 620 419 620 419 651 461 c 0,21,22
 681 503 681 503 718 527 c 128,-1,23
 755 551 755 551 801 566 c 0,24,25
 848 581 848 581 909 582 c 0,26,27
 1026 582 1026 582 1092 541 c 2,28,-1
 1099 537 l 1,29,-1
 1102 515 l 1,30,-1
 1036 414 l 1,31,-1
 1018 420 l 2,32,33
 954 442 954 442 880 442 c 0,34,35
 791 442 791 442 751 392 c 0,36,37
 741 379 741 379 737 364 c 0,38,39
 732 342 732 342 742 327 c 0,40,41
 754 310 754 310 777 303 c 0,42,43
 800 296 800 296 832 296 c 0,44,45
 908 296 908 296 994 333 c 0,46,47
 1016 342 1016 342 1029 350 c 2,48,-1
 1035 354 l 1,49,-1
 1064 354 l 1,50,-1
 1064 335 l 2,51,52
 1063 295 1063 295 1054 253 c 0,53,54
 1053 249 1053 249 1052 244 c 0,55,56
 1024 123 1024 123 953 37 c 128,-1,57
 882 -49 882 -49 784 -88 c 0,58,59
 718 -115 718 -115 647 -116 c 0,60,61
 481 -116 481 -116 403 22 c 0,62,63
 325 159 325 159 374 370 c 0,64,65
 398 473 398 473 445 561 c 128,-1,66
 492 649 492 649 555 712 c 0,67,68
 693 851 693 851 856 851 c 0,69,70
 950 851 950 851 1011 806 c 0,71,72
 1072 762 1072 762 1105 689 c 2,73,-1
 1109 680 l 1,74,-1
 1098 655 l 1,75,-1
 976 593 l 1,76,-1
 969 612 l 2,77,78
 927 712 927 712 825 712 c 0,0,1
EndSplineSet
EndChar

StartChar: uni1C5D
Encoding: 269 7261 13
Width: 1280
VWidth: 2048
Flags: W
CounterMasks: 1 e0
AnchorPoint: "top" 672 942 basechar 0
AnchorPoint: "base" 700 -154 basechar 0
LayerCount: 2
Fore
SplineSet
631 364 m 1,0,-1
 632 368 l 1,1,-1
 634 378 l 1,2,-1
 917 616 l 1,3,4
 896 675 896 675 827 696 c 0,5,6
 804 703 804 703 782 703 c 0,7,8
 717 703 717 703 652 645 c 0,9,10
 579 579 579 579 519 444 c 2,11,-1
 510 425 l 1,12,-1
 484 425 l 1,13,-1
 399 473 l 1,14,-1
 407 493 l 2,15,16
 472 649 472 649 584 746 c 0,17,18
 696 844 696 844 813 844 c 0,19,20
 906 844 906 844 974 784 c 0,21,22
 1048 720 1048 720 1072 609 c 2,23,-1
 1072 604 l 1,24,-1
 1068 584 l 1,25,-1
 803 366 l 1,26,-1
 967 148 l 1,27,-1
 962 128 l 1,28,-1
 959 123 l 2,29,30
 874 3 874 3 779 -56 c 0,31,32
 690 -112 690 -112 598 -112 c 0,33,34
 477 -112 477 -112 410 -17 c 128,-1,35
 343 78 343 78 349 239 c 2,36,-1
 350 258 l 1,37,-1
 457 308 l 1,38,-1
 483 308 l 1,39,-1
 483 288 l 2,40,41
 481 155 481 155 524 88 c 0,42,43
 561 30 561 30 626 29 c 0,44,45
 702 29 702 29 775 89 c 0,46,47
 790 101 790 101 802 116 c 1,48,-1
 629 354 l 1,49,-1
 631 364 l 1,0,-1
895 432 m 1,50,-1
 1101 432 l 1,51,-1
 1070 300 l 1,52,-1
 865 300 l 1,53,-1
 895 432 l 1,50,-1
EndSplineSet
EndChar

StartChar: uni1C5E
Encoding: 270 7262 14
Width: 1133
VWidth: 2048
Flags: W
AnchorPoint: "top" 652 950 basechar 0
AnchorPoint: "base" 570 -138 basechar 0
LayerCount: 2
Fore
SplineSet
813 859 m 1,0,-1
 822 859 l 1,1,-1
 826 857 l 2,2,3
 904 814 904 814 949.5 741 c 128,-1,4
 995 668 995 668 1000 568 c 0,5,6
 1003 505 1003 505 988 438 c 0,7,8
 941 235 941 235 762 96 c 0,9,10
 704 51 704 51 627 14 c 1,11,-1
 618 14 l 1,12,-1
 612 14 l 1,13,-1
 457 143 l 1,14,-1
 404 -86 l 1,15,-1
 269 -86 l 1,16,-1
 482 837 l 1,17,-1
 617 837 l 1,18,-1
 596 743 l 1,19,-1
 807 859 l 1,20,-1
 813 859 l 1,0,-1
851 437 m 0,21,22
 880 562 880 562 818 652 c 0,23,24
 800 679 800 679 773 700 c 1,25,-1
 559 584 l 1,26,-1
 495 307 l 1,27,-1
 652 174 l 1,28,29
 767 240 767 240 823 359 c 0,30,31
 842 398 842 398 851 437 c 0,21,22
EndSplineSet
EndChar

StartChar: uni1C5F
Encoding: 271 7263 15
Width: 1503
VWidth: 2048
Flags: W
AnchorPoint: "top" 758 1015 basechar 0
AnchorPoint: "base" 774 -213 basechar 0
LayerCount: 2
Fore
SplineSet
1247 333 m 0,0,1
 1202 136 1202 136 1105 -17 c 0,2,3
 1073 -67 1073 -67 1036 -107 c 2,4,-1
 1019 -126 l 1,5,-1
 922 -44 l 1,6,-1
 941 -23 l 2,7,8
 1023 65 1023 65 1081 227 c 0,9,10
 1100 280 1100 280 1113 336 c 0,11,12
 1159 534 1159 534 1110 644 c 1,13,-1
 1054 587 l 1,14,15
 1067 476 1067 476 1036 338 c 0,16,17
 991 141 991 141 879 14 c 0,18,19
 764 -116 764 -116 631 -116 c 0,20,21
 496 -116 496 -116 442 11 c 0,22,23
 425 51 425 51 421 103 c 2,24,-1
 419 116 l 1,25,-1
 902 605 l 1,26,27
 889 659 889 659 864 683 c 0,28,29
 835 710 835 710 794 710 c 0,30,31
 733 710 733 710 663 657 c 1,32,-1
 739 464 l 1,33,-1
 694 414 l 1,34,-1
 434 414 l 1,35,-1
 465 550 l 1,36,-1
 555 550 l 1,37,-1
 505 667 l 1,38,-1
 506 675 l 1,39,-1
 509 686 l 1,40,-1
 515 693 l 2,41,42
 619 808 619 808 741 840 c 0,43,44
 780 850 780 850 816 850 c 0,45,46
 954 850 954 850 1016 720 c 1,47,-1
 1144 849 l 1,48,-1
 1158 835 l 2,49,50
 1326 675 1326 675 1247 333 c 0,0,1
663 23 m 0,51,52
 732 23 732 23 796 104 c 0,53,54
 867 193 867 193 900 337 c 0,55,56
 913 395 913 395 917 448 c 1,57,-1
 572 97 l 1,58,59
 582 66 582 66 599 49 c 0,60,61
 623 23 623 23 663 23 c 0,51,52
EndSplineSet
EndChar

StartChar: uni1C60
Encoding: 272 7264 16
Width: 1130
VWidth: 2048
Flags: W
AnchorPoint: "top" 582 955 basechar 0
AnchorPoint: "base" 614 -189 basechar 0
LayerCount: 2
Fore
SplineSet
778 721 m 1,0,-1
 787 721 l 1,1,-1
 791 718 l 2,2,3
 956 616 956 616 964 423 c 0,4,5
 966 365 966 365 952 304 c 0,6,7
 951 301 951 301 950 297 c 0,8,9
 919 163 919 163 824 49 c 128,-1,10
 729 -65 729 -65 596 -122 c 2,11,-1
 591 -124 l 1,12,-1
 583 -124 l 1,13,-1
 576 -124 l 1,14,-1
 303 77 l 1,15,-1
 474 821 l 1,16,-1
 610 821 l 1,17,-1
 557 592 l 1,18,-1
 771 721 l 1,19,-1
 778 721 l 1,0,-1
815 298 m 0,20,21
 844 422 844 422 781 513 c 0,22,23
 763 539 763 539 737 560 c 1,24,-1
 519 427 l 1,25,-1
 456 152 l 1,26,-1
 615 36 l 1,27,28
 733 104 733 104 788 223 c 0,29,30
 806 260 806 260 815 298 c 0,20,21
EndSplineSet
EndChar

StartChar: uni1C61
Encoding: 273 7265 17
Width: 1205
VWidth: 2048
Flags: W
AnchorPoint: "top" 598 967 basechar 0
AnchorPoint: "base" 614 -181 basechar 0
LayerCount: 2
Fore
SplineSet
1016 343 m 0,0,1
 976 170 976 170 879 59 c 0,2,3
 832 5 832 5 779 -34 c 0,4,5
 726 -74 726 -74 655 -108 c 1,6,-1
 646 -108 l 1,7,-1
 639 -108 l 1,8,-1
 454 75 l 1,9,-1
 416 -92 l 1,10,-1
 280 -92 l 1,11,-1
 493 831 l 1,12,-1
 629 831 l 1,13,-1
 495 250 l 1,14,-1
 692 58 l 1,15,16
 833 143 833 143 878 341 c 0,17,18
 914 497 914 497 883 658 c 0,19,20
 873 710 873 710 853 763 c 1,21,-1
 855 773 l 1,22,-1
 858 785 l 1,23,-1
 973 866 l 1,24,-1
 982 845 l 2,25,26
 1052 691 1052 691 1036 480 c 0,27,28
 1032 411 1032 411 1016 343 c 0,0,1
EndSplineSet
EndChar

StartChar: uni1C62
Encoding: 274 7266 18
Width: 1205
VWidth: 2048
Flags: W
AnchorPoint: "top" 670 907 basechar 0
AnchorPoint: "base" 722 -165 basechar 0
LayerCount: 2
Fore
SplineSet
506 -108 m 1,0,-1
 500 -108 l 1,1,2
 446 -73 446 -73 410 -34 c 0,3,4
 376 6 376 6 354 60 c 128,-1,5
 332 114 332 114 330 186 c 0,6,7
 329 257 329 257 349 343 c 0,8,9
 396 546 396 546 528 737 c 0,10,11
 570 796 570 796 614 845 c 2,12,-1
 633 866 l 1,13,-1
 710 785 l 1,14,-1
 707 773 l 1,15,-1
 705 763 l 1,16,-1
 700 757 l 2,17,18
 581 615 581 615 517 444 c 0,19,20
 497 391 497 391 485 341 c 0,21,22
 439 143 439 143 540 58 c 1,23,-1
 826 250 l 1,24,-1
 961 831 l 1,25,-1
 1096 831 l 1,26,-1
 883 -92 l 1,27,-1
 748 -92 l 1,28,-1
 786 75 l 1,29,-1
 517 -108 l 1,30,-1
 509 -108 l 1,31,-1
 506 -108 l 1,0,-1
EndSplineSet
EndChar

StartChar: uni1C63
Encoding: 275 7267 19
Width: 1286
VWidth: 2048
Flags: W
AnchorPoint: "top" 690 899 basechar 0
AnchorPoint: "base" 730 -161 basechar 0
LayerCount: 2
Fore
SplineSet
365 239 m 0,0,1
 381 309 381 309 418 381 c 2,2,-1
 427 399 l 1,3,-1
 459 399 l 1,4,-1
 464 390 l 2,5,6
 492 338 492 338 540 319 c 0,7,8
 554 313 554 313 569 313 c 0,9,10
 602 313 602 313 626 338 c 0,11,12
 649 360 649 360 669 400 c 0,13,14
 687 439 687 439 699 493 c 0,15,16
 733 642 733 642 684 685 c 0,17,18
 671 695 671 695 657 696 c 0,19,20
 630 696 630 696 597 664 c 0,21,22
 559 628 559 628 528 568 c 2,23,-1
 513 538 l 1,24,-1
 411 605 l 1,25,-1
 422 625 l 2,26,27
 479 732 479 732 551 787 c 0,28,29
 615 835 615 835 684 836 c 0,30,31
 783 836 783 836 826 737 c 128,-1,32
 869 638 869 638 833.5 486 c 128,-1,33
 798 334 798 334 719 250 c 0,34,35
 644 171 644 171 555 171 c 0,36,37
 516 171 516 171 484 188 c 1,38,39
 481 145 481 145 495 112 c 0,40,41
 516 64 516 64 563 41 c 0,42,43
 595 25 595 25 637 25 c 0,44,45
 731 25 731 25 809 103 c 0,46,47
 894 188 894 188 928 336 c 0,48,49
 964 490 964 490 945 658 c 0,50,51
 939 711 939 711 926 762 c 1,52,-1
 928 770 l 1,53,-1
 931 783 l 1,54,-1
 1047 865 l 1,55,-1
 1055 841 l 2,56,57
 1109 684 1109 684 1087 463 c 0,58,59
 1080 397 1080 397 1067 340 c 0,60,61
 1032 188 1032 188 952 78 c 0,62,63
 874 -32 874 -32 763 -82 c 0,64,65
 691 -115 691 -115 615 -115 c 0,66,67
 475 -115 475 -115 402 -15 c 128,-1,68
 329 85 329 85 365 239 c 0,0,1
EndSplineSet
EndChar

StartChar: uni1C64
Encoding: 276 7268 20
Width: 1137
VWidth: 2048
Flags: W
AnchorPoint: "top" 630 919 basechar 0
AnchorPoint: "base" 630 -153 basechar 0
LayerCount: 2
Fore
SplineSet
753 853 m 0,0,1
 947 853 947 853 1026 671 c 2,2,-1
 1032 656 l 1,3,-1
 944 562 l 1,4,-1
 793 -92 l 1,5,-1
 658 -92 l 1,6,-1
 766 375 l 1,7,-1
 311 -116 l 1,8,-1
 224 -27 l 1,9,-1
 862 660 l 1,10,11
 808 717 808 717 720 717 c 0,12,13
 656 717 656 717 598 687 c 0,14,15
 540 658 540 658 483 602 c 2,16,-1
 474 593 l 1,17,-1
 460 593 l 1,18,-1
 452 593 l 1,19,-1
 380 669 l 1,20,-1
 399 689 l 2,21,22
 469 763 469 763 559 808 c 0,23,24
 652 853 652 853 753 853 c 0,0,1
EndSplineSet
EndChar

StartChar: uni1C65
Encoding: 277 7269 21
Width: 1137
VWidth: 2048
Flags: W
AnchorPoint: "top" 642 935 basechar 0
AnchorPoint: "base" 574 -189 basechar 0
LayerCount: 2
Fore
SplineSet
554 -118 m 0,0,1
 360 -118 360 -118 281 64 c 2,2,-1
 275 79 l 1,3,-1
 363 173 l 1,4,-1
 514 827 l 1,5,-1
 648 827 l 1,6,-1
 541 360 l 1,7,-1
 995 851 l 1,8,-1
 1083 762 l 1,9,-1
 445 75 l 1,10,11
 498 18 498 18 585 18 c 0,12,13
 586 18 586 18 587 18 c 0,14,15
 651 18 651 18 709 48 c 0,16,17
 767 77 767 77 824 133 c 2,18,-1
 833 142 l 1,19,-1
 846 142 l 1,20,-1
 855 142 l 1,21,-1
 927 66 l 1,22,-1
 908 46 l 2,23,24
 840 -26 840 -26 753 -70 c 0,25,26
 708 -93 708 -93 657 -106 c 0,27,28
 606 -118 606 -118 554 -118 c 0,0,1
EndSplineSet
EndChar

StartChar: uni1C66
Encoding: 278 7270 22
Width: 1422
VWidth: 2048
Flags: W
AnchorPoint: "top" 782 983 basechar 0
AnchorPoint: "base" 790 -105 basechar 0
LayerCount: 2
Fore
SplineSet
541 359 m 0,0,1
 518 258 518 258 529 182 c 0,2,3
 538 120 538 120 567 82 c 1,4,-1
 768 303 l 1,5,-1
 780 303 l 1,6,-1
 795 303 l 1,7,-1
 894 83 l 1,8,9
 962 137 962 137 1006 235 c 0,10,11
 1032 292 1032 292 1048 359 c 0,12,13
 1085 519 1085 519 1037 665 c 0,14,15
 1022 711 1022 711 997 762 c 1,16,-1
 999 773 l 1,17,-1
 1002 785 l 1,18,-1
 1114 865 l 1,19,-1
 1125 847 l 2,20,21
 1215 699 1215 699 1205 499 c 0,22,23
 1202 432 1202 432 1185 362 c 0,24,25
 1147 199 1147 199 1060 83 c 0,26,27
 973 -34 973 -34 849 -105 c 2,28,-1
 843 -108 l 1,29,-1
 834 -108 l 1,30,-1
 822 -108 l 1,31,-1
 732 88 l 1,32,-1
 551 -108 l 1,33,-1
 539 -108 l 1,34,-1
 530 -108 l 1,35,-1
 525 -105 l 2,36,37
 434 -34 434 -34 400.5 83 c 128,-1,38
 367 200 367 200 405 362 c 0,39,40
 452 567 452 567 593 744 c 0,41,42
 638 800 638 800 689 847 c 2,43,-1
 708 865 l 1,44,-1
 783 785 l 1,45,-1
 781 773 l 1,46,-1
 778 762 l 1,47,-1
 771 755 l 2,48,49
 639 621 639 621 576 467 c 0,50,51
 554 415 554 415 541 359 c 0,0,1
EndSplineSet
EndChar

StartChar: uni1C67
Encoding: 279 7271 23
Width: 1130
VWidth: 2048
Flags: W
AnchorPoint: "top" 602 959 basechar 0
AnchorPoint: "base" 690 -133 basechar 0
LayerCount: 2
Fore
SplineSet
522 14 m 1,0,-1
 513 14 l 1,1,-1
 509 17 l 2,2,3
 401 83 401 83 360 197 c 0,4,5
 319 306 319 306 350 438 c 0,6,7
 398 646 398 646 578 784 c 0,8,9
 637 828 637 828 709 859 c 1,10,-1
 717 859 l 1,11,-1
 724 859 l 1,12,-1
 997 658 l 1,13,-1
 826 -86 l 1,14,-1
 690 -86 l 1,15,-1
 743 143 l 1,16,-1
 529 14 l 1,17,-1
 522 14 l 1,0,-1
485 437 m 0,18,19
 456 313 456 313 519 222 c 0,20,21
 537 196 537 196 563 175 c 1,22,-1
 781 308 l 1,23,-1
 844 582 l 1,24,-1
 685 699 l 1,25,26
 568 633 568 633 512 512 c 0,27,28
 494 475 494 475 485 437 c 0,18,19
EndSplineSet
EndChar

StartChar: uni1C68
Encoding: 280 7272 24
Width: 1030
VWidth: 2048
Flags: W
AnchorPoint: "top" 490 943 basechar 0
AnchorPoint: "base" 526 -205 basechar 0
LayerCount: 2
Fore
SplineSet
466 638 m 1,0,-1
 480 638 l 1,1,-1
 700 259 l 1,2,3
 716 294 716 294 724 330 c 0,4,5
 752 452 752 452 689 550 c 0,6,7
 618 660 618 660 437 725 c 2,8,-1
 422 730 l 1,9,-1
 427 751 l 1,10,-1
 428 758 l 1,11,-1
 504 859 l 1,12,-1
 520 855 l 2,13,14
 717 798 717 798 810 653 c 0,15,16
 902 509 902 509 861 332 c 0,17,18
 833 210 833 210 750 94 c 0,19,20
 658 -36 658 -36 532 -105 c 2,21,-1
 526 -108 l 1,22,-1
 517 -108 l 1,23,-1
 506 -108 l 1,24,-1
 414 47 l 1,25,-1
 290 -108 l 1,26,-1
 277 -108 l 1,27,-1
 274 -108 l 1,28,-1
 266 -108 l 1,29,-1
 188 -39 l 1,30,-1
 430 264 l 1,31,-1
 457 264 l 1,32,-1
 569 82 l 1,33,34
 587 96 587 96 609 120 c 1,35,-1
 354 555 l 1,36,-1
 456 638 l 1,37,-1
 466 638 l 1,0,-1
EndSplineSet
EndChar

StartChar: uni1C69
Encoding: 281 7273 25
Width: 1125
VWidth: 2048
Flags: W
AnchorPoint: "top" 546 939 basechar 0
AnchorPoint: "base" 622 -189 basechar 0
LayerCount: 2
Fore
SplineSet
469 388 m 1,0,-1
 366 388 l 1,1,-1
 466 821 l 1,2,-1
 601 821 l 1,3,-1
 547 583 l 1,4,-1
 762 721 l 1,5,-1
 769 721 l 1,6,-1
 778 721 l 1,7,-1
 782 718 l 2,8,9
 947 616 947 616 955 424 c 0,10,11
 958 363 958 363 943 298 c 0,12,13
 895 89 895 89 710 -49 c 0,14,15
 651 -93 651 -93 577 -124 c 1,16,-1
 568 -124 l 1,17,-1
 563 -124 l 1,18,-1
 275 79 l 1,19,-1
 368 198 l 1,20,-1
 601 36 l 1,21,22
 724 105 724 105 779 221 c 0,23,24
 797 260 797 260 807 300 c 0,25,26
 835 423 835 423 778 514 c 0,27,28
 762 539 762 539 738 559 c 1,29,-1
 469 388 l 1,0,-1
EndSplineSet
EndChar

StartChar: uni1C6A
Encoding: 282 7274 26
Width: 1288
VWidth: 2048
Flags: W
AnchorPoint: "top" 698 963 basechar 0
AnchorPoint: "base" 714 -177 basechar 0
LayerCount: 2
Fore
SplineSet
556 610 m 2,0,1
 574 690 574 690 626 747 c 0,2,3
 678 804 678 804 745 832 c 0,4,5
 791 851 791 851 841 851 c 0,6,7
 938 851 938 851 987.5 781 c 128,-1,8
 1037 711 1037 711 1014 610 c 2,9,-1
 948 323 l 1,10,-1
 1059 130 l 1,11,-1
 1048 115 l 2,12,13
 922 -50 922 -50 739 -99 c 0,14,15
 680 -115 680 -115 619 -116 c 0,16,17
 435 -116 435 -116 340 20 c 0,18,19
 310 63 310 63 294 115 c 2,20,-1
 289 130 l 1,21,-1
 490 324 l 1,22,-1
 556 610 l 2,0,1
883 610 m 2,23,24
 891 644 891 644 879 669 c 0,25,26
 867 695 867 695 844 707 c 0,27,28
 829 716 829 716 808.5 716 c 128,-1,29
 788 716 788 716 767 706 c 128,-1,30
 746 696 746 696 731 682 c 0,31,32
 715 667 715 667 704 649 c 0,33,34
 692 630 692 630 687 610 c 2,35,-1
 620 320 l 2,36,37
 614 296 614 296 625 279 c 0,38,39
 638 259 638 259 662 249 c 0,40,41
 679 242 679 242 699 242 c 0,42,43
 731 242 731 242 758.5 256 c 128,-1,44
 786 270 786 270 803 292 c 0,45,46
 812 304 812 304 815 317 c 2,47,-1
 883 610 l 2,23,24
455 124 m 1,48,49
 517 24 517 24 647 24 c 0,50,51
 648 24 648 24 650 24 c 0,52,53
 782 24 782 24 891 124 c 1,54,-1
 859 176 l 1,55,56
 826 148 826 148 786 129 c 0,57,58
 730 103 730 103 668.5 103 c 128,-1,59
 607 103 607 103 563 129 c 0,60,61
 531 148 531 148 511 176 c 1,62,-1
 455 124 l 1,48,49
EndSplineSet
EndChar

StartChar: uni1C6B
Encoding: 283 7275 27
Width: 1393
VWidth: 2048
Flags: W
CounterMasks: 1 38
AnchorPoint: "top" 778 915 basechar 0
AnchorPoint: "base" 762 -189 basechar 0
LayerCount: 2
Fore
SplineSet
420 473 m 0,0,1
 433 529 433 529 474 588 c 0,2,3
 557 705 557 705 717 789 c 0,4,5
 796 830 796 830 894 855 c 1,6,-1
 899 854 l 2,7,8
 1055 808 1055 808 1138 697 c 0,9,10
 1176 646 1176 646 1191 588 c 128,-1,11
 1206 530 1206 530 1192 473 c 0,12,13
 1174 396 1174 396 1118 341 c 0,14,15
 1074 299 1074 299 1008 273 c 0,16,17
 957 253 957 253 891 247 c 2,18,-1
 876 246 l 1,19,-1
 849 356 l 1,20,-1
 871 380 l 1,21,-1
 882 381 l 2,22,23
 966 388 966 388 1014 419 c 0,24,25
 1050 442 1050 442 1059 475 c 0,26,27
 1064 498 1064 498 1056 529 c 0,28,29
 1038 600 1038 600 956 664 c 0,30,31
 916 694 916 694 862 716 c 1,32,33
 739 674 739 674 647 597 c 0,34,35
 607 563 607 563 583.5 531 c 128,-1,36
 560 499 560 499 554 474 c 0,37,38
 546 439 546 439 574 415 c 0,39,40
 608 384 608 384 687 381 c 2,41,-1
 697 380 l 1,42,-1
 709 356 l 1,43,-1
 631 245 l 1,44,-1
 616 247 l 2,45,46
 498 262 498 262 446 326 c 0,47,48
 400 386 400 386 420 473 c 0,0,1
652 56 m 0,49,50
 623 56 623 56 596 64 c 1,51,52
 610 42 610 42 635.5 29 c 128,-1,53
 661 16 661 16 698 16 c 0,54,55
 755 16 755 16 798 51 c 0,56,57
 841 87 841 87 882 169 c 2,58,-1
 891 187 l 1,59,-1
 920 187 l 1,60,-1
 987 115 l 1,61,-1
 978 98 l 2,62,63
 895 -54 895 -54 765 -99 c 0,64,65
 722 -114 722 -114 676 -115 c 0,66,67
 565 -115 565 -115 506 -37 c 0,68,69
 437 53 437 53 475 213 c 2,70,-1
 478 227 l 1,71,-1
 518 250 l 1,72,-1
 528 241 l 2,73,74
 575 201 575 201 634 191 c 0,75,76
 648 189 648 189 657.5 189 c 128,-1,77
 667 189 667 189 675 191 c 1,78,-1
 766 585 l 1,79,-1
 897 585 l 1,80,-1
 788 111 l 1,81,-1
 780 104 l 2,82,83
 727 56 727 56 652 56 c 0,49,50
EndSplineSet
EndChar

StartChar: uni1C6C
Encoding: 284 7276 28
Width: 1422
VWidth: 2048
Flags: W
AnchorPoint: "top" 794 931 basechar 0
AnchorPoint: "base" 758 -161 basechar 0
LayerCount: 2
Fore
SplineSet
1016 267 m 0,0,1
 1038 320 1038 320 1053 381 c 0,2,3
 1067 443 1067 443 1067 499 c 0,4,5
 1068 598 1068 598 1024 653 c 1,6,-1
 825 432 l 1,7,-1
 812 432 l 1,8,-1
 809 432 l 1,9,-1
 798 432 l 1,10,-1
 699 653 l 1,11,12
 651 616 651 616 614 553 c 0,13,14
 569 477 569 477 545 376 c 0,15,16
 508 216 508 216 555 70 c 0,17,18
 570 24 570 24 596 -27 c 1,19,-1
 593 -38 l 1,20,-1
 591 -50 l 1,21,-1
 478 -130 l 1,22,-1
 467 -112 l 2,23,24
 377 36 377 36 388 236 c 0,25,26
 391 303 391 303 407 373 c 0,27,28
 459 599 459 599 620 749 c 0,29,30
 675 801 675 801 743 840 c 2,31,-1
 749 843 l 1,32,-1
 759 843 l 1,33,-1
 771 843 l 1,34,-1
 860 647 l 1,35,-1
 1041 843 l 1,36,-1
 1053 843 l 1,37,-1
 1063 843 l 1,38,-1
 1068 840 l 2,39,40
 1261 688 1261 688 1188 373 c 0,41,42
 1141 168 1141 168 999 -9 c 0,43,44
 954 -65 954 -65 904 -112 c 2,45,-1
 885 -130 l 1,46,-1
 809 -50 l 1,47,-1
 812 -38 l 1,48,-1
 814 -27 l 1,49,-1
 822 -20 l 2,50,51
 953 114 953 114 1016 267 c 0,0,1
EndSplineSet
EndChar

StartChar: uni1C6D
Encoding: 285 7277 29
Width: 1286
VWidth: 2048
Flags: W
AnchorPoint: "top" 702 951 basechar 0
AnchorPoint: "base" 674 -161 basechar 0
LayerCount: 2
Fore
SplineSet
1091 496 m 0,0,1
 1075 426 1075 426 1039 354 c 2,2,-1
 1029 336 l 1,3,-1
 998 336 l 1,4,-1
 993 344 l 2,5,6
 963 397 963 397 916 416 c 0,7,8
 902 422 902 422 888 422 c 0,9,10
 853 422 853 422 820 387 c 0,11,12
 780 342 780 342 758 248 c 0,13,14
 757 245 757 245 757 242 c 0,15,16
 723 93 723 93 772 50 c 0,17,18
 785 40 785 40 799 39 c 0,19,20
 826 39 826 39 861 72 c 128,-1,21
 896 105 896 105 929 168 c 2,22,-1
 944 196 l 1,23,-1
 1046 130 l 1,24,-1
 1034 110 l 2,25,26
 977 3 977 3 905 -52 c 0,27,28
 841 -100 841 -100 773 -101 c 0,29,30
 674 -101 674 -101 631 -2 c 128,-1,31
 588 97 588 97 623 249 c 128,-1,32
 658 401 658 401 738 485 c 0,33,34
 813 564 813 564 901 564 c 0,35,36
 940 564 940 564 973 547 c 1,37,38
 976 590 976 590 961 623 c 0,39,40
 940 671 940 671 893 694 c 0,41,42
 861 710 861 710 820 710 c 0,43,44
 726 710 726 710 647 632 c 0,45,46
 562 547 562 547 528 399 c 0,47,48
 492 245 492 245 512 77 c 0,49,50
 518 24 518 24 530 -27 c 1,51,-1
 525 -48 l 1,52,-1
 409 -130 l 1,53,-1
 401 -106 l 2,54,55
 347 51 347 51 370 272 c 0,56,57
 377 338 377 338 390 395 c 0,58,59
 425 547 425 547 504 657 c 0,60,61
 582 767 582 767 694 817 c 0,62,63
 766 850 766 850 842 850 c 0,64,65
 982 850 982 850 1054.5 750 c 128,-1,66
 1127 650 1127 650 1091 496 c 0,0,1
EndSplineSet
EndChar

StartChar: uni1C6E
Encoding: 286 7278 30
Width: 1109
VWidth: 2048
Flags: W
AnchorPoint: "top" 594 927 basechar 0
AnchorPoint: "base" 594 -169 basechar 0
LayerCount: 2
Fore
SplineSet
468 578 m 1,0,-1
 454 578 l 1,1,-1
 446 578 l 1,2,-1
 375 655 l 1,3,-1
 392 674 l 2,4,5
 548 851 548 851 748 851 c 0,6,7
 939 851 939 851 1025 682 c 2,8,-1
 1033 665 l 1,9,-1
 425 76 l 1,10,11
 514 26 514 26 568 21 c 1,12,13
 614 21 614 21 657 37 c 0,14,15
 700 53 700 53 732 76 c 0,16,17
 765 100 765 100 800 135 c 2,18,-1
 809 144 l 1,19,-1
 823 144 l 1,20,-1
 831 144 l 1,21,-1
 903 69 l 1,22,-1
 884 49 l 2,23,24
 774 -71 774 -71 630 -104 c 0,25,26
 583 -115 583 -115 535 -116 c 0,27,28
 341 -116 341 -116 258 66 c 2,29,-1
 250 82 l 1,30,-1
 853 666 l 1,31,32
 766 710 766 710 715 714 c 1,33,34
 652 714 652 714 594.5 683 c 128,-1,35
 537 652 537 652 478 588 c 2,36,-1
 468 578 l 1,0,-1
EndSplineSet
EndChar

StartChar: uni1C6F
Encoding: 287 7279 31
Width: 1296
VWidth: 2048
Flags: W
AnchorPoint: "top" 706 923 basechar 0
AnchorPoint: "base" 686 -157 basechar 0
LayerCount: 2
Fore
SplineSet
505 573 m 1,0,-1
 493 573 l 1,1,-1
 483 573 l 1,2,-1
 419 650 l 1,3,-1
 436 668 l 2,4,5
 555 797 555 797 736 838 c 0,6,7
 793 851 793 851 848 851 c 0,8,9
 1058 851 1058 851 1160 677 c 2,10,-1
 1170 661 l 1,11,-1
 1021 507 l 1,12,-1
 936 139 l 1,13,14
 944 146 944 146 961 162 c 1,15,-1
 974 162 l 1,16,-1
 983 162 l 1,17,-1
 1047 85 l 1,18,-1
 1031 67 l 2,19,20
 973 3 973 3 895 -40 c 0,21,22
 818 -83 818 -83 730 -103 c 0,23,24
 673 -116 673 -116 619 -116 c 0,25,26
 408 -116 408 -116 306 58 c 2,27,-1
 297 74 l 1,28,-1
 445 225 l 1,29,-1
 530 595 l 1,30,31
 522 588 522 588 505 573 c 1,0,-1
559 169 m 1,32,-1
 473 81 l 1,33,34
 547 19 547 19 649 18 c 0,35,36
 715 18 715 18 787 46 c 1,37,-1
 906 562 l 1,38,-1
 994 655 l 1,39,40
 920 717 920 717 817 717 c 0,41,42
 750 717 750 717 680 690 c 1,43,-1
 559 169 l 1,32,-1
EndSplineSet
EndChar

StartChar: uni1C70
Encoding: 288 7280 32
Width: 1505
VWidth: 2048
Flags: W
AnchorPoint: "top" 790 987 basechar 0
AnchorPoint: "base" 834 -173 basechar 0
LayerCount: 2
Fore
SplineSet
958 829 m 2,0,1
 1019 829 1019 829 1072 812 c 0,2,3
 1124 795 1124 795 1159.5 767 c 128,-1,4
 1195 739 1195 739 1220 700 c 0,5,6
 1303 572 1303 572 1257 372 c 0,7,8
 1207 154 1207 154 1046 -8 c 0,9,10
 993 -62 993 -62 931 -101 c 2,11,-1
 909 -115 l 1,12,-1
 867 -20 l 1,13,-1
 869 -12 l 1,14,-1
 872 3 l 1,15,-1
 882 11 l 2,16,17
 1024 115 1024 115 1090 270 c 0,18,19
 1110 318 1110 318 1122 366 c 0,20,21
 1146 472 1146 472 1125 546 c 0,22,23
 1104 621 1104 621 1046 660 c 0,24,25
 1016 680 1016 680 976 688 c 1,26,-1
 796 -94 l 1,27,-1
 712 -94 l 2,28,29
 536 -94 536 -94 454 34 c 128,-1,30
 372 162 372 162 419 363 c 0,31,32
 469 580 469 580 628 742 c 0,33,34
 681 796 681 796 745 837 c 2,35,-1
 767 852 l 1,36,-1
 809 755 l 1,37,-1
 807 747 l 1,38,-1
 804 733 l 1,39,-1
 794 726 l 2,40,41
 650 618 650 618 585 463 c 0,42,43
 566 416 566 416 554 369 c 0,44,45
 530 263 530 263 550 189 c 0,46,47
 570 114 570 114 626 75 c 0,48,49
 655 55 655 55 694 47 c 1,50,-1
 874 829 l 1,51,-1
 958 829 l 2,0,1
EndSplineSet
EndChar

StartChar: uni1C71
Encoding: 289 7281 33
Width: 1226
VWidth: 2048
Flags: W
AnchorPoint: "top" 694 927 basechar 0
AnchorPoint: "base" 702 -169 basechar 0
LayerCount: 2
Fore
SplineSet
906 144 m 1,0,-1
 915 144 l 1,1,-1
 986 69 l 1,2,-1
 968 49 l 2,3,4
 857 -70 857 -70 710 -104 c 0,5,6
 663 -115 663 -115 615 -116 c 0,7,8
 422 -116 422 -116 342 66 c 2,9,-1
 335 82 l 1,10,-1
 422 172 l 1,11,-1
 520 596 l 1,12,13
 513 589 513 589 496 573 c 1,14,-1
 482 573 l 1,15,-1
 473 573 l 1,16,-1
 409 649 l 1,17,-1
 426 668 l 2,18,19
 541 797 541 797 718 838 c 0,20,21
 773 851 773 851 827 851 c 0,22,23
 1033 851 1033 851 1129 676 c 2,24,-1
 1138 659 l 1,25,-1
 1046 576 l 1,26,-1
 1036 576 l 1,27,-1
 1022 576 l 1,28,29
 1011 593 1011 593 1006 602 c 1,30,-1
 502 80 l 1,31,32
 591 26 591 26 647 21 c 1,33,34
 715 21 715 21 772.5 51 c 128,-1,35
 830 81 830 81 884 135 c 2,36,-1
 893 144 l 1,37,-1
 906 144 l 1,0,-1
918 686 m 1,38,39
 859 717 859 717 798 717 c 0,40,41
 738 717 738 717 670 692 c 1,42,-1
 589 342 l 1,43,-1
 918 686 l 1,38,39
EndSplineSet
EndChar

StartChar: uni1C72
Encoding: 290 7282 34
Width: 1226
VWidth: 2048
Flags: W
AnchorPoint: "top" 626 919 basechar 0
AnchorPoint: "base" 646 -173 basechar 0
LayerCount: 2
Fore
SplineSet
503 591 m 1,0,-1
 490 591 l 1,1,-1
 482 591 l 1,2,-1
 411 666 l 1,3,-1
 428 686 l 2,4,5
 539 805 539 805 687 839 c 0,6,7
 734 850 734 850 782 851 c 0,8,9
 975 851 975 851 1055 669 c 2,10,-1
 1062 653 l 1,11,-1
 975 563 l 1,12,-1
 877 139 l 1,13,14
 884 146 884 146 901 162 c 1,15,-1
 915 162 l 1,16,-1
 923 162 l 1,17,-1
 987 86 l 1,18,-1
 971 67 l 2,19,20
 856 -62 856 -62 679 -103 c 0,21,22
 624 -116 624 -116 570 -116 c 0,23,24
 364 -116 364 -116 268 59 c 2,25,-1
 259 76 l 1,26,-1
 350 159 l 1,27,-1
 361 159 l 1,28,-1
 375 159 l 1,29,30
 386 142 386 142 391 133 c 1,31,-1
 895 655 l 1,32,33
 838 714 838 714 749 714 c 0,34,35
 703 714 703 714 658 698 c 0,36,37
 614 682 614 682 581 659 c 0,38,39
 548 635 548 635 513 600 c 2,40,-1
 503 591 l 1,0,-1
478 49 m 1,41,42
 537 18 537 18 599 18 c 0,43,44
 659 18 659 18 726 43 c 1,45,-1
 807 393 l 1,46,-1
 478 49 l 1,41,42
EndSplineSet
EndChar

StartChar: uni1C73
Encoding: 291 7283 35
Width: 1286
VWidth: 2048
Flags: W
AnchorPoint: "top" 710 931 basechar 0
AnchorPoint: "base" 690 -157 basechar 0
LayerCount: 2
Fore
SplineSet
795 712 m 0,0,1
 723 712 723 712 652.5 659 c 128,-1,2
 582 606 582 606 533 512 c 2,3,-1
 526 501 l 1,4,-1
 503 492 l 1,5,-1
 399 535 l 1,6,-1
 412 559 l 2,7,8
 464 656 464 656 539 726 c 0,9,10
 615 797 615 797 706 830 c 0,11,12
 766 851 766 851 827 851 c 0,13,14
 990 851 990 851 1060 712 c 0,15,16
 1129 577 1129 577 1081.5 370 c 128,-1,17
 1034 163 1034 163 902 25 c 0,18,19
 766 -116 766 -116 603 -116 c 0,20,21
 484 -116 484 -116 410.5 -37 c 128,-1,22
 337 42 337 42 325 171 c 2,23,-1
 323 192 l 1,24,-1
 445 247 l 1,25,-1
 465 237 l 1,26,-1
 466 226 l 2,27,28
 471 158 471 158 497 109 c 0,29,30
 523 60 523 60 571 37 c 0,31,32
 600 23 600 23 636 23 c 0,33,34
 737 23 737 23 827 125 c 1,35,36
 802 118 802 118 775 118 c 0,37,38
 700 118 700 118 655 159 c 0,39,40
 609 199 609 199 598 264 c 0,41,42
 590 309 590 309 602.5 363 c 128,-1,43
 615 417 615 417 644 462 c 0,44,45
 672 507 672 507 708 538 c 0,46,47
 745 568 745 568 788 586 c 0,48,49
 829 603 829 603 870 603 c 0,50,51
 872 603 872 603 874 603 c 0,52,53
 918 603 918 603 949 588 c 1,54,55
 925 668 925 668 860 698 c 0,56,57
 831 712 831 712 795 712 c 0,0,1
744 282 m 0,58,59
 766 254 766 254 812 254 c 0,60,61
 836 254 836 254 859 263 c 0,62,63
 901 280 901 280 926 320 c 0,64,65
 938 339 938 339 943 358 c 0,66,67
 951 394 951 394 938.5 420 c 128,-1,68
 926 446 926 446 900 461 c 0,69,70
 883 470 883 470 861 470 c 0,71,72
 839 470 839 470 817.5 461 c 128,-1,73
 796 452 796 452 780 437 c 0,74,75
 764 423 764 423 751 403 c 0,76,77
 739 385 739 385 734 363 c 0,78,79
 727 333 727 333 730 314 c 0,80,81
 734 294 734 294 744 282 c 0,58,59
EndSplineSet
EndChar

StartChar: uni1C74
Encoding: 292 7284 36
Width: 1205
VWidth: 2048
Flags: W
AnchorPoint: "top" 642 927 basechar 0
AnchorPoint: "base" 610 -149 basechar 0
LayerCount: 2
Fore
SplineSet
859 843 m 1,0,-1
 875 843 l 1,1,2
 929 808 929 808 965 769 c 0,3,4
 999 729 999 729 1021 675 c 128,-1,5
 1043 621 1043 621 1045 549 c 0,6,7
 1046 478 1046 478 1027 392 c 0,8,9
 979 186 979 186 848 -2 c 0,10,11
 806 -61 806 -61 761 -110 c 2,12,-1
 742 -131 l 1,13,-1
 665 -50 l 1,14,-1
 668 -38 l 1,15,-1
 670 -28 l 1,16,-1
 676 -22 l 2,17,18
 795 120 795 120 859 291 c 0,19,20
 879 344 879 344 891 394 c 0,21,22
 937 592 937 592 835 677 c 1,23,-1
 549 485 l 1,24,-1
 415 -96 l 1,25,-1
 279 -96 l 1,26,-1
 492 827 l 1,27,-1
 628 827 l 1,28,-1
 589 660 l 1,29,-1
 859 843 l 1,0,-1
EndSplineSet
EndChar

StartChar: uni1C75
Encoding: 293 7285 37
Width: 1505
VWidth: 2048
Flags: W
AnchorPoint: "top" 838 935 basechar 0
AnchorPoint: "base" 802 -185 basechar 0
LayerCount: 2
Fore
SplineSet
553 366 m 0,0,1
 517 212 517 212 575 89 c 0,2,3
 595 47 595 47 629 11 c 2,4,-1
 635 3 l 1,5,-1
 632 -12 l 1,6,-1
 630 -20 l 1,7,-1
 544 -115 l 1,8,-1
 528 -101 l 2,9,10
 443 -26 443 -26 416 101 c 0,11,12
 402 164 402 164 403 235 c 0,13,14
 405 305 405 305 421 372 c 0,15,16
 467 572 467 572 609 701 c 0,17,18
 751 829 751 829 931 829 c 2,19,-1
 1015 829 l 1,20,-1
 834 47 l 1,21,22
 905 60 905 60 963 105 c 0,23,24
 1032 159 1032 159 1076 243 c 0,25,26
 1106 301 1106 301 1122 369 c 0,27,28
 1157 521 1157 521 1101 644 c 0,29,30
 1081 687 1081 687 1047 726 c 2,31,-1
 1041 733 l 1,32,-1
 1044 747 l 1,33,-1
 1046 755 l 1,34,-1
 1132 852 l 1,35,-1
 1147 837 l 2,36,37
 1210 779 1210 779 1243 693 c 0,38,39
 1275 606 1275 606 1272 497 c 0,40,41
 1270 430 1270 430 1255 363 c 0,42,43
 1209 163 1209 163 1067 34 c 0,44,45
 926 -94 926 -94 750 -94 c 2,46,-1
 667 -94 l 1,47,-1
 847 688 l 1,48,49
 773 675 773 675 715 630 c 0,50,51
 645 576 645 576 600 491 c 0,52,53
 569 434 569 434 553 366 c 0,0,1
EndSplineSet
EndChar

StartChar: uni1C76
Encoding: 294 7286 38
Width: 1282
VWidth: 2048
Flags: W
AnchorPoint: "top" 638 919 basechar 0
AnchorPoint: "base" 690 -173 basechar 0
LayerCount: 2
Fore
SplineSet
959 609 m 0,0,1
 940 637 940 637 949 677 c 0,2,3
 958 718 958 718 991 746 c 0,4,5
 1022 773 1022 773 1058 773 c 0,6,7
 1059 773 1059 773 1061 773 c 0,8,9
 1099 773 1099 773 1118.5 745 c 128,-1,10
 1138 717 1138 717 1129 677 c 0,11,12
 1123 650 1123 650 1106 629 c 0,13,14
 1086 603 1086 603 1053 588 c 0,15,16
 1037 581 1037 581 1020 581 c 0,17,18
 1018 581 1018 581 1016 581 c 0,19,20
 979 581 979 581 959 609 c 0,0,1
928 334 m 0,21,22
 936 369 936 369 953 476 c 1,23,-1
 969 494 l 1,24,-1
 1093 516 l 1,25,-1
 1090 490 l 2,26,27
 1081 403 1081 403 1065 334 c 0,28,29
 1030 182 1030 182 951 72 c 0,30,31
 873 -38 873 -38 761 -88 c 0,32,33
 689 -121 689 -121 613 -121 c 0,34,35
 473 -121 473 -121 400.5 -21 c 128,-1,36
 328 79 328 79 364 233 c 0,37,38
 380 303 380 303 417 376 c 2,39,-1
 426 394 l 1,40,-1
 458 394 l 1,41,-1
 462 385 l 2,42,43
 490 333 490 333 539 313 c 0,44,45
 553 307 553 307 567 307 c 0,46,47
 600 307 600 307 625 332 c 0,48,49
 648 354 648 354 667 394 c 0,50,51
 685 433 685 433 698 487 c 0,52,53
 732 636 732 636 683 679 c 0,54,55
 670 689 670 689 656 690 c 0,56,57
 629 690 629 690 595 658 c 0,58,59
 557 622 557 622 526 562 c 2,60,-1
 512 533 l 1,61,-1
 409 599 l 1,62,-1
 421 619 l 2,63,64
 478 726 478 726 550 781 c 0,65,66
 614 829 614 829 682 830 c 0,67,68
 781 830 781 830 824 731 c 128,-1,69
 867 632 867 632 832 480 c 128,-1,70
 797 328 797 328 717 244 c 0,71,72
 642 165 642 165 554 165 c 0,73,74
 515 165 515 165 482 182 c 1,75,76
 479 139 479 139 494 106 c 0,77,78
 515 58 515 58 562 35 c 0,79,80
 594 19 594 19 635 19 c 0,81,82
 729 19 729 19 808 98 c 0,83,84
 893 183 893 183 928 334 c 0,21,22
EndSplineSet
EndChar

StartChar: uni1C77
Encoding: 295 7287 39
Width: 1379
VWidth: 2048
Flags: W
AnchorPoint: "top" 742 971 basechar 0
AnchorPoint: "base" 754 -165 basechar 0
LayerCount: 2
Fore
SplineSet
939 269 m 0,0,1
 826 269 826 269 746 312 c 0,2,3
 666 354 666 354 627 429 c 0,4,5
 586 507 586 507 608 600 c 0,6,7
 621 658 621 658 650 705 c 0,8,9
 679 752 679 752 717 782 c 0,10,11
 755 813 755 813 801 833 c 0,12,13
 847 852 847 852 902 852 c 0,14,15
 1055 852 1055 852 1125 703 c 0,16,17
 1157 636 1157 636 1162.5 544 c 128,-1,18
 1168 452 1168 452 1144 347 c 0,19,20
 1094 129 1094 129 945 -17 c 0,21,22
 893 -67 893 -67 831 -105 c 2,23,-1
 825 -109 l 1,24,-1
 814 -109 l 1,25,-1
 805 -109 l 1,26,-1
 693 46 l 1,27,-1
 531 -109 l 1,28,-1
 521 -109 l 1,29,-1
 511 -109 l 1,30,-1
 507 -107 l 2,31,32
 405 -48 405 -48 368 40 c 0,33,34
 331 127 331 127 359 247 c 0,35,36
 381 344 381 344 447 468 c 1,37,-1
 462 495 l 1,38,-1
 565 437 l 1,39,-1
 561 421 l 1,40,-1
 560 414 l 1,41,42
 513 328 513 328 495 255 c 0,43,44
 478 182 478 182 492 129 c 0,45,46
 503 86 503 86 533 65 c 1,47,-1
 719 240 l 1,48,-1
 730 240 l 1,49,-1
 733 240 l 1,50,-1
 743 240 l 1,51,-1
 863 68 l 1,52,53
 901 100 901 100 933 154 c 0,54,55
 965 207 965 207 988 272 c 1,56,57
 964 269 964 269 939 269 c 0,0,1
876 713 m 0,58,59
 851 713 851 713 828.5 704 c 128,-1,60
 806 695 806 695 789 679 c 0,61,62
 773 664 773 664 760 642 c 0,63,64
 747 620 747 620 740 593 c 0,65,66
 722 515 722 515 785 464 c 0,67,68
 851 409 851 409 973 409 c 0,69,70
 997 409 997 409 1021 411 c 1,71,72
 1036 537 1036 537 995 625 c 0,73,74
 953 713 953 713 876 713 c 0,58,59
EndSplineSet
EndChar

StartChar: uni1C78
Encoding: 296 7288 40
Width: 3
VWidth: 2048
GlyphClass: 4
Flags: W
AnchorPoint: "top" -253 945 mark 0
LayerCount: 2
Fore
SplineSet
138 941 m 0,0,1
 147 982 147 982 179 1010 c 0,2,3
 210 1037 210 1037 247 1037 c 0,4,5
 248 1037 248 1037 250 1037 c 0,6,7
 288 1037 288 1037 307 1009 c 0,8,9
 326 982 326 982 317 944 c 0,10,11
 310 914 310 914 294 893 c 0,12,13
 274 867 274 867 241 852 c 0,14,15
 225 845 225 845 206 845 c 0,16,17
 204 845 204 845 201 845 c 0,18,19
 180 845 180 845 162 857 c 0,20,21
 145 870 145 870 138 892 c 0,22,23
 132 915 132 915 138 941 c 0,0,1
EndSplineSet
EndChar

StartChar: uni1C79
Encoding: 297 7289 41
Width: 3
VWidth: 2048
GlyphClass: 4
Flags: W
AnchorPoint: "base" -278 -205 mark 0
LayerCount: 2
Fore
SplineSet
-141 -217 m 0,0,1
 -135 -190 -135 -190 -119 -168 c 0,2,3
 -102 -146 -102 -146 -78.5 -133 c 128,-1,4
 -55 -120 -55 -120 -29 -120 c 0,5,6
 9 -120 9 -120 28 -148 c 0,7,8
 47 -175 47 -175 38 -214 c 0,9,10
 31 -244 31 -244 15 -265 c 0,11,12
 -5 -291 -5 -291 -38 -305 c 0,13,14
 -57 -313 -57 -313 -74 -313 c 0,15,16
 -112 -313 -112 -313 -132 -285 c 0,17,18
 -150 -258 -150 -258 -141 -217 c 0,0,1
EndSplineSet
EndChar

StartChar: uni1C7A
Encoding: 298 7290 42
Width: 447
VWidth: 2048
Flags: W
LayerCount: 2
Fore
SplineSet
298 709 m 0,0,1
 307 750 307 750 339 778 c 0,2,3
 372 806 372 806 410 806 c 128,-1,4
 448 806 448 806 468 778 c 0,5,6
 487 751 487 751 478 712 c 0,7,8
 471 682 471 682 455 661 c 0,9,10
 435 635 435 635 402 621 c 0,11,12
 383 613 383 613 361.5 613 c 128,-1,13
 340 613 340 613 322.5 626 c 128,-1,14
 305 639 305 639 298 661 c 0,15,16
 292 683 292 683 298 709 c 0,0,1
138 15 m 0,17,18
 144 42 144 42 161 64 c 0,19,20
 178 86 178 86 201.5 99 c 128,-1,21
 225 112 225 112 250 112 c 0,22,23
 288 112 288 112 307 83 c 0,24,25
 326 56 326 56 317 18 c 0,26,27
 310 -12 310 -12 294 -34 c 0,28,29
 274 -60 274 -60 241 -74 c 0,30,31
 222 -82 222 -82 205 -82 c 0,32,33
 167 -82 167 -82 147 -54 c 0,34,35
 129 -26 129 -26 138 15 c 0,17,18
EndSplineSet
EndChar

StartChar: uni1C7B
Encoding: 299 7291 43
Width: 704
VWidth: 2048
Flags: W
LayerCount: 2
Fore
SplineSet
396 513 m 0,0,1
 385 513 385 513 376.5 508 c 128,-1,2
 368 503 368 503 364 499 c 0,3,4
 358 492 358 492 337 462 c 1,5,-1
 310 462 l 1,6,-1
 262 521 l 1,7,-1
 273 538 l 2,8,9
 304 587 304 587 335 615 c 0,10,11
 372 647 372 647 422 647 c 0,12,13
 455 647 455 647 516 625 c 0,14,15
 521 623 521 623 530 620 c 0,16,17
 558 609 558 609 567.5 607 c 128,-1,18
 577 605 577 605 586 606 c 0,19,20
 594 606 594 606 601 611 c 0,21,22
 612 619 612 619 627 637 c 2,23,-1
 636 648 l 1,24,-1
 652 648 l 1,25,-1
 665 648 l 1,26,-1
 693 570 l 1,27,-1
 683 557 l 2,28,29
 649 510 649 510 617 491 c 128,-1,30
 585 472 585 472 556 472 c 128,-1,31
 527 472 527 472 475 492 c 0,32,33
 422 513 422 513 396 513 c 0,0,1
EndSplineSet
EndChar

StartChar: uni1C7C
Encoding: 300 7292 44
Width: 580
VWidth: 2048
Flags: W
LayerCount: 2
Fore
SplineSet
289 627 m 1,0,-1
 581 627 l 1,1,-1
 550 491 l 1,2,-1
 257 491 l 1,3,-1
 289 627 l 1,0,-1
EndSplineSet
EndChar

StartChar: uni1C7D
Encoding: 301 7293 45
Width: 986
VWidth: 2048
Flags: W
LayerCount: 2
Fore
SplineSet
829 355 m 0,0,1
 757 44 757 44 508 -105 c 2,2,-1
 501 -109 l 1,3,-1
 491 -109 l 1,4,-1
 481 -109 l 1,5,-1
 288 185 l 1,6,-1
 387 277 l 1,7,-1
 397 277 l 1,8,-1
 410 277 l 1,9,-1
 540 69 l 1,10,11
 577 100 577 100 609 149 c 128,-1,12
 641 198 641 198 665 259 c 1,13,14
 654 258 654 258 644 258 c 0,15,16
 493 258 493 258 409 363 c 0,17,18
 356 429 356 429 351 521 c 0,19,20
 348 566 348 566 358 614 c 0,21,22
 377 695 377 695 426 752 c 0,23,24
 474 809 474 809 539 835 c 0,25,26
 582 852 582 852 626 852 c 0,27,28
 719 852 719 852 778 781 c 0,29,30
 862 680 862 680 848 485 c 0,31,32
 845 423 845 423 829 355 c 0,0,1
600 713 m 0,33,34
 560 713 560 713 531 684 c 128,-1,35
 502 655 502 655 490 605 c 0,36,37
 471 521 471 521 521 461 c 0,38,39
 574 397 574 397 681 397 c 0,40,41
 691 397 691 397 703 398 c 1,42,43
 726 530 726 530 698 622 c 0,44,45
 670 713 670 713 600 713 c 0,33,34
EndSplineSet
EndChar

StartChar: uni1C7E
Encoding: 302 7294 46
Width: 467
VWidth: 2048
Flags: W
LayerCount: 2
Fore
SplineSet
303 595 m 1,0,-1
 439 595 l 1,1,-1
 334 140 l 1,2,-1
 198 140 l 1,3,-1
 303 595 l 1,0,-1
EndSplineSet
EndChar

StartChar: uni1C7F
Encoding: 303 7295 47
Width: 811
VWidth: 2048
Flags: W
LayerCount: 2
Fore
SplineSet
371 595 m 1,0,-1
 507 595 l 1,1,-1
 402 140 l 1,2,-1
 266 140 l 1,3,-1
 371 595 l 1,0,-1
580 595 m 1,4,-1
 715 595 l 1,5,-1
 610 140 l 1,6,-1
 475 140 l 1,7,-1
 580 595 l 1,4,-1
EndSplineSet
EndChar

StartChar: exclam
Encoding: 33 33 48
Width: 207
VWidth: 944
Flags: W
LayerCount: 2
Fore
SplineSet
45 -98 m 1,0,-1
 169 599 l 1,1,2
 179 643 179 643 211 672 c 128,-1,3
 243 701 243 701 278 702 c 0,4,5
 312 702 312 702 329 675 c 0,6,7
 346 649 346 649 337 608 c 1,8,-1
 148 -98 l 1,9,-1
 45 -98 l 1,0,-1
92 -126 m 0,10,11
 128 -126 128 -126 144.5 -157 c 128,-1,12
 161 -188 161 -188 152 -226 c 0,13,14
 143 -265 143 -265 115 -294 c 0,15,16
 85 -325 85 -325 46 -325 c 0,17,18
 3 -325 3 -325 -13 -294 c 0,19,20
 -28 -266 -28 -266 -18 -225 c 0,21,22
 -9 -185 -9 -185 14 -159 c 0,23,24
 45 -126 45 -126 92 -126 c 0,10,11
EndSplineSet
EndChar

StartChar: quotedbl
Encoding: 34 34 49
Width: 319
VWidth: 1112
Flags: W
LayerCount: 2
Fore
SplineSet
303 801 m 1,0,-1
 299 883 l 1,1,-1
 252 803 l 1,2,-1
 274 759 l 1,3,-1
 303 801 l 1,0,-1
440 801 m 1,4,-1
 437 884 l 1,5,-1
 389 803 l 1,6,-1
 411 759 l 1,7,-1
 440 801 l 1,4,-1
EndSplineSet
EndChar

StartChar: numbersign
Encoding: 35 35 50
Width: 810
VWidth: 946
Flags: W
LayerCount: 2
Fore
SplineSet
318 125 m 1,0,-1
 235 125 l 1,1,-1
 234 115 l 1,2,-1
 274 115 l 1,3,-1
 308 115 l 1,4,-1
 192 -77 l 1,5,-1
 197 -77 l 1,6,-1
 304 97 l 1,7,-1
 512 97 l 1,8,-1
 371 -80 l 1,9,-1
 389 -85 l 1,10,-1
 524 97 l 1,11,-1
 626 97 l 1,12,-1
 631 117 l 1,13,-1
 545 109 l 1,14,-1
 665 276 l 1,15,-1
 762 282 l 1,16,-1
 768 299 l 1,17,-1
 669 299 l 1,18,-1
 767 476 l 1,19,-1
 753 477 l 1,20,-1
 660 312 l 1,21,-1
 444 304 l 1,22,-1
 504 402 l 1,23,-1
 437 293 l 1,24,-1
 435 293 l 1,25,-1
 318 125 l 1,0,-1
465 300 m 1,26,27
 524 303 524 303 556 303 c 0,28,29
 607 303 607 303 622 296 c 0,30,31
 632 291 632 291 634 281 c 2,32,-1
 637 270 l 1,33,-1
 535 119 l 1,34,-1
 331 119 l 1,35,-1
 465 300 l 1,26,27
EndSplineSet
EndChar

StartChar: dollar
Encoding: 36 36 51
Width: 753
VWidth: 853
Flags: W
LayerCount: 2
Fore
SplineSet
554 774 m 1,0,-1
 567 830 l 1,1,-1
 685 830 l 1,2,-1
 672 775 l 1,3,4
 799 759 799 759 825 667 c 0,5,6
 838 622 838 622 824 563 c 2,7,-1
 818 539 l 1,8,-1
 692 539 l 1,9,-1
 697 563 l 2,10,11
 710 624 710 624 665 650 c 0,12,13
 656 655 656 655 645 658 c 1,14,-1
 600 462 l 1,15,16
 681 441 681 441 719 418 c 0,17,18
 763 388 763 388 774 338 c 0,19,20
 784 299 784 299 772 248 c 2,21,-1
 771 247 l 1,22,23
 736 112 736 112 628 51 c 0,24,25
 574 24 574 24 497 15 c 1,26,-1
 473 -87 l 1,27,-1
 355 -87 l 1,28,-1
 378 15 l 1,29,30
 314 22 314 22 273 45 c 0,31,32
 218 80 218 80 208 152 c 0,33,34
 204 192 204 192 216 241 c 2,35,-1
 218 252 l 2,36,37
 219 258 219 258 229 284 c 1,38,-1
 346 284 l 1,39,-1
 341 237 l 2,40,41
 338 207 338 207 340 193 c 128,-1,42
 342 179 342 179 345 174 c 0,43,44
 363 144 363 144 405 132 c 1,45,-1
 456 350 l 1,46,47
 371 375 371 375 342 399 c 0,48,49
 278 455 278 455 302 560 c 0,50,51
 318 630 318 630 359 679 c 0,52,53
 410 740 410 740 507 765 c 0,54,55
 530 770 530 770 554 774 c 1,0,-1
449 607 m 1,56,-1
 440 579 l 1,57,58
 431 540 431 540 456 515 c 0,59,60
 470 501 470 501 495 491 c 1,61,-1
 537 672 l 1,62,63
 515 666 515 666 498 657 c 0,64,65
 465 639 465 639 449 607 c 1,56,-1
527 119 m 1,66,67
 565 127 565 127 590 145 c 0,68,69
 636 179 636 179 647.5 228.5 c 128,-1,70
 659 278 659 278 625 301 c 0,71,72
 608 312 608 312 574 324 c 1,73,-1
 527 119 l 1,66,67
EndSplineSet
EndChar

StartChar: percent
Encoding: 37 37 52
Width: 738
VWidth: 930
Flags: W
LayerCount: 2
Fore
SplineSet
899 517 m 1,0,-1
 235 -295 l 1,1,-1
 174 -210 l 1,2,-1
 838 601 l 1,3,-1
 899 517 l 1,0,-1
452 448 m 128,-1,5
 454 456 454 456 449 462 c 0,6,7
 447 464 447 464 445.5 464 c 128,-1,8
 444 464 444 464 442.5 463.5 c 128,-1,9
 441 463 441 463 439 462 c 0,10,11
 432 456 432 456 430 447.5 c 128,-1,12
 428 439 428 439 432 433 c 0,13,14
 433 432 433 432 434 431.5 c 128,-1,15
 435 431 435 431 438 431 c 2,16,17
 439 431 439 431 442 434 c 0,18,4
 450 440 450 440 452 448 c 128,-1,5
555 540 m 0,19,20
 575 500 575 500 561 443 c 0,21,22
 550 395 550 395 513 352 c 0,23,24
 494 331 494 331 472 319 c 0,25,26
 443 303 443 303 415 303 c 0,27,28
 358 303 358 303 341 349 c 0,29,30
 326 389 326 389 338.5 443 c 128,-1,31
 351 497 351 497 384 538 c 0,32,33
 405 564 405 564 431 576 c 0,34,35
 452 587 452 587 479 587 c 0,36,37
 508 587 508 587 530 571 c 0,38,39
 545 559 545 559 555 540 c 0,19,20
632.5 -96.5 m 128,-1,41
 636 -82 636 -82 631 -73 c 0,42,43
 630 -71 630 -71 629.5 -70 c 128,-1,44
 629 -69 629 -69 628 -69 c 0,45,46
 625 -69 625 -69 622 -73 c 0,47,48
 613 -83 613 -83 609.5 -98.5 c 128,-1,49
 606 -114 606 -114 610 -123 c 0,50,51
 611 -125 611 -125 612 -126 c 128,-1,52
 613 -127 613 -127 615 -127 c 0,53,54
 616 -126 616 -126 620 -123 c 0,55,40
 629 -111 629 -111 632.5 -96.5 c 128,-1,41
729 10 m 0,56,57
 743 -33 743 -33 729 -96 c 0,58,59
 717 -149 717 -149 683 -195 c 0,60,61
 666 -218 666 -218 647 -231 c 0,62,63
 621 -249 621 -249 593 -249 c 0,64,65
 529 -249 529 -249 508 -199 c 0,66,67
 490 -156 490 -156 504 -96.5 c 128,-1,68
 518 -37 518 -37 556 8 c 0,69,70
 580 36 580 36 610 49 c 0,71,72
 635 60 635 60 664 60 c 0,73,74
 692 60 692 60 709 44 c 0,75,76
 722 31 722 31 729 10 c 0,56,57
EndSplineSet
EndChar

StartChar: ampersand
Encoding: 38 38 53
Width: 900
VWidth: 982
Flags: W
LayerCount: 2
Fore
SplineSet
525 16 m 2,0,1
 505 9 505 9 490 8 c 0,2,3
 476 8 476 8 464 10 c 0,4,5
 373 10 373 10 329 33 c 1,6,7
 261 56 261 56 224 99 c 1,8,9
 215 115 215 115 212 136 c 0,10,11
 208 157 208 157 213 181 c 0,12,-1
 213 182 l 0,13,14
 221 216 221 216 255 250 c 2,15,-1
 257 253 l 1,16,17
 278 269 278 269 315 290 c 0,18,19
 351 312 351 312 366 324 c 1,20,21
 394 341 394 341 446 372 c 1,22,-1
 450 343 l 2,23,24
 458 279 458 279 475 231 c 1,25,26
 495 126 495 126 543 57 c 2,27,-1
 562 29 l 1,28,-1
 525 16 l 2,0,1
691 905 m 0,29,30
 661 910 661 910 648 910 c 0,31,32
 646 910 646 910 645 910 c 0,33,34
 632 910 632 910 604 894 c 0,35,36
 594 888 594 888 587 883 c 2,37,-1
 547 848 l 2,38,39
 541 842 541 842 540 839 c 0,40,41
 538 829 538 829 533 822 c 0,42,43
 528 814 528 814 528 811 c 0,44,45
 527 805 527 805 523.5 799 c 128,-1,46
 520 793 520 793 520 791 c 0,47,48
 518 785 518 785 505 765 c 1,49,-1
 473 671 l 1,50,-1
 454 578 l 1,51,-1
 441 461 l 1,52,53
 442 429 442 429 445 381 c 1,54,55
 415 363 415 363 401 354 c 0,56,57
 384 341 384 341 341 315 c 128,-1,58
 298 289 298 289 277 272 c 0,59,60
 234 235 234 235 232 232 c 0,61,62
 200 203 200 203 195 182 c 0,63,-1
 195 181 l 2,64,-1
 194 180 l 2,65,66
 191 167 191 167 193 155 c 128,-1,67
 195 143 195 143 199 136 c 128,-1,68
 203 129 203 129 212 116 c 2,69,-1
 241 75 l 2,70,71
 270 33 270 33 340 9 c 1,72,73
 376 -10 376 -10 454 -10 c 0,74,75
 458 -10 458 -10 461 -10 c 2,76,-1
 463 -10 l 1,77,78
 473 -12 473 -12 481 -12 c 0,79,80
 499 -12 499 -12 526 2 c 0,81,82
 541 10 541 10 567 22 c 1,83,-1
 576 10 l 2,84,85
 602 -24 602 -24 634 -50 c 0,86,87
 652 -62 652 -62 683 -71 c 1,88,-1
 693 -63 l 1,89,-1
 684 -50 l 1,90,-1
 660 -43 l 2,91,92
 651 -40 651 -40 639 -34 c 0,93,94
 625 -27 625 -27 613 -19 c 0,95,96
 602 -10 602 -10 587 4 c 2,97,-1
 569 21 l 1,98,-1
 628 72 l 2,99,100
 654 94 654 94 669 130 c 1,101,102
 666 135 666 135 663 140 c 1,103,104
 656 134 656 134 652 130 c 0,105,106
 652 128 652 128 650 126 c 0,107,108
 634 88 634 88 609 60 c 2,109,-1
 606 55 l 1,110,111
 588 44 588 44 584 43 c 128,-1,112
 580 42 580 42 560 32 c 1,113,-1
 551 46 l 2,114,115
 512 114 512 114 494 207 c 1,116,117
 473 272 473 272 464 364 c 2,118,-1
 462 382 l 1,119,-1
 479 393 l 2,120,121
 533 428 533 428 597 480 c 0,122,123
 606 487 606 487 656 530 c 0,124,125
 758 618 758 618 801 727 c 1,126,127
 808 782 808 782 786 821 c 0,128,129
 783 826 783 826 781 831 c 2,130,-1
 756 866 l 2,131,132
 734 897 734 897 691 905 c 0,29,30
641 890 m 0,133,134
 656 890 656 890 696 883 c 128,-1,135
 736 876 736 876 765 849 c 2,136,-1
 767 847 l 1,137,-1
 768 844 l 2,138,139
 791 795 791 795 782 728 c 2,140,-1
 782 725 l 1,141,-1
 780 722 l 2,142,143
 735 607 735 607 635 512 c 1,144,145
 572 462 572 462 523 430 c 0,146,147
 509 420 509 420 461 390 c 1,148,149
 459 436 459 436 459 451 c 1,150,-1
 471 574 l 1,151,-1
 492 673 l 1,152,-1
 528 777 l 1,153,154
 536 790 536 790 540 797 c 0,155,156
 541 800 541 800 544 806 c 128,-1,157
 547 812 547 812 547 813 c 0,158,159
 549 820 549 820 554 829 c 0,160,161
 559 837 559 837 559 839 c 0,162,163
 561 847 561 847 564 855 c 2,164,-1
 569 864 l 1,165,-1
 579 869 l 2,166,167
 616 890 616 890 641 890 c 0,133,134
EndSplineSet
EndChar

StartChar: quotesingle
Encoding: 39 39 54
Width: 299
VWidth: 1204
Flags: W
LayerCount: 2
Fore
SplineSet
373 801 m 1,0,-1
 369 883 l 1,1,-1
 322 803 l 1,2,-1
 343 759 l 1,3,-1
 373 801 l 1,0,-1
EndSplineSet
EndChar

StartChar: parenleft
Encoding: 40 40 55
Width: 653
VWidth: 1132
Flags: W
LayerCount: 2
Fore
SplineSet
184 352 m 0,0,1
 244 612 244 612 499 845 c 2,2,-1
 518 863 l 1,3,-1
 583 786 l 1,4,-1
 562 767 l 2,5,6
 457 673 457 673 387 569 c 128,-1,7
 317 465 317 465 292 354 c 0,8,9
 258 206 258 206 289 110 c 0,10,11
 307 58 307 58 380 -41 c 2,12,-1
 392 -57 l 1,13,-1
 304 -142 l 1,14,-1
 291 -128 l 2,15,16
 200 -40 200 -40 175 82 c 128,-1,17
 150 204 150 204 184 352 c 0,0,1
EndSplineSet
EndChar

StartChar: parenright
Encoding: 41 41 56
Width: 581
VWidth: 1133
Flags: W
LayerCount: 2
Fore
SplineSet
649 352 m 0,0,1
 613 197 613 197 531.5 73 c 128,-1,2
 450 -51 450 -51 314 -144 c 2,3,-1
 294 -158 l 1,4,-1
 244 -72 l 1,5,-1
 263 -56 l 2,6,7
 387 50 387 50 426 99 c 0,8,9
 504 197 504 197 540 349 c 0,10,11
 567 467 567 467 546.5 575 c 128,-1,12
 526 683 526 683 462 782 c 2,13,-1
 451 800 l 1,14,-1
 549 882 l 1,15,-1
 561 863 l 2,16,17
 638 739 638 739 661 617 c 0,18,19
 682 494 682 494 649 352 c 0,0,1
EndSplineSet
EndChar

StartChar: asterisk
Encoding: 42 42 57
Width: 663
VWidth: 912
Flags: W
LayerCount: 2
Fore
SplineSet
374 151 m 1,0,-1
 493 65 l 1,1,-1
 456 203 l 1,2,-1
 572 296 l 1,3,-1
 449 283 l 1,4,-1
 456 429 l 1,5,-1
 365 293 l 1,6,-1
 220 309 l 1,7,-1
 299 182 l 1,8,-1
 216 65 l 1,9,-1
 374 151 l 1,0,-1
EndSplineSet
EndChar

StartChar: plus
Encoding: 43 43 58
Width: 741
VWidth: 856
Flags: W
LayerCount: 2
Fore
SplineSet
472 285 m 1,0,-1
 696 286 l 1,1,-1
 679 335 l 1,2,-1
 484 335 l 1,3,-1
 538 569 l 1,4,-1
 485 537 l 1,5,-1
 438 335 l 1,6,-1
 198 335 l 1,7,-1
 222 292 l 1,8,-1
 423 290 l 1,9,-1
 363 35 l 1,10,-1
 383 47 l 1,11,-1
 423 73 l 1,12,-1
 472 285 l 1,0,-1
EndSplineSet
EndChar

StartChar: comma
Encoding: 44 44 59
Width: 230
VWidth: 649
Flags: W
LayerCount: 2
Fore
SplineSet
151 -8 m 1,0,1
 161 10 161 10 165 28 c 128,-1,2
 169 46 169 46 165 64 c 0,3,4
 156 97 156 97 109 104 c 0,5,6
 107 104 107 104 105 104 c 0,7,8
 98 104 98 104 96 101 c 0,9,10
 92 96 92 96 89 85 c 1,11,-1
 93 38 l 1,12,-1
 151 -8 l 1,0,1
EndSplineSet
EndChar

StartChar: hyphen
Encoding: 45 45 60
Width: 633
VWidth: 884
Flags: W
LayerCount: 2
Fore
SplineSet
159 -18 m 1,0,-1
 241 98 l 1,1,-1
 599 98 l 1,2,-1
 507 -18 l 1,3,-1
 159 -18 l 1,0,-1
EndSplineSet
EndChar

StartChar: period
Encoding: 46 46 61
Width: 278
VWidth: 666
Flags: W
LayerCount: 2
Fore
SplineSet
-25 -450 m 0,0,1
 1 -423 1 -423 35 -423 c 0,2,3
 68 -423 68 -423 82 -448 c 0,4,5
 95 -472 95 -472 87.5 -504 c 128,-1,6
 80 -536 80 -536 57 -560 c 0,7,8
 31 -588 31 -588 -3.5 -588 c 128,-1,9
 -38 -588 -38 -588 -50 -563 c 0,10,11
 -63 -539 -63 -539 -56 -507 c 0,12,13
 -48 -474 -48 -474 -25 -450 c 0,0,1
EndSplineSet
EndChar

StartChar: slash
Encoding: 47 47 62
Width: 807
VWidth: 929
Flags: W
LayerCount: 2
Fore
SplineSet
145 -71 m 1,0,-1
 62 11 l 1,1,-1
 846 862 l 1,2,-1
 929 780 l 1,3,-1
 145 -71 l 1,0,-1
EndSplineSet
EndChar

StartChar: colon
Encoding: 58 58 63
Width: 502
VWidth: 1139
Flags: W
LayerCount: 2
Fore
SplineSet
410 573 m 0,0,1
 401 534 401 534 370 500 c 0,2,3
 336 464 336 464 294 464 c 0,4,5
 247 464 247 464 229 497 c 0,6,7
 211 529 211 529 221 572 c 128,-1,8
 231 615 231 615 263 647 c 0,9,10
 297 682 297 682 345 683 c 0,11,12
 387 683 387 683 404 650 c 0,13,14
 421 619 421 619 410 573 c 0,0,1
199 140 m 0,15,16
 235 140 235 140 251 112 c 0,17,18
 266 84 266 84 257.5 48 c 128,-1,19
 249 12 249 12 222 -17 c 0,20,21
 192 -49 192 -49 155 -49 c 0,22,23
 114 -49 114 -49 99 -21 c 128,-1,24
 84 7 84 7 93 44 c 128,-1,25
 102 81 102 81 128 109 c 0,26,27
 157 140 157 140 199 140 c 0,15,16
EndSplineSet
EndChar

StartChar: semicolon
Encoding: 59 59 64
Width: 597
VWidth: 1179
Flags: W
LayerCount: 2
Fore
SplineSet
451 764 m 0,0,1
 484 764 484 764 498 739 c 128,-1,2
 512 714 512 714 504.5 681 c 128,-1,3
 497 648 497 648 472 622 c 0,4,5
 446 594 446 594 413 594 c 0,6,7
 412 594 412 594 410 594 c 0,8,9
 375 594 375 594 361 619 c 128,-1,10
 347 644 347 644 355 678 c 0,11,12
 363 711 363 711 387 736 c 0,13,14
 414 764 414 764 451 764 c 0,0,1
365 211 m 0,15,16
 367 218 367 218 356 228 c 128,-1,17
 345 238 345 238 336 244 c 1,18,19
 333 231 333 231 334 199 c 1,20,-1
 293 156 l 1,21,22
 319 169 319 169 336 181 c 0,23,24
 362 200 362 200 365 211 c 0,15,16
EndSplineSet
EndChar

StartChar: less
Encoding: 60 60 65
Width: 625
VWidth: 1130
Flags: W
LayerCount: 2
Fore
SplineSet
197 330 m 1,0,-1
 717 725 l 1,1,-1
 755 630 l 1,2,-1
 356 315 l 1,3,-1
 606 -51 l 1,4,-1
 502 -133 l 1,5,-1
 197 330 l 1,0,-1
EndSplineSet
EndChar

StartChar: equal
Encoding: 61 61 66
Width: 883
VWidth: 1163
Flags: W
LayerCount: 2
Fore
SplineSet
372 213 m 1,0,-1
 388 160 l 1,1,-1
 771 160 l 1,2,-1
 760 213 l 1,3,-1
 372 213 l 1,0,-1
435 594 m 1,4,-1
 450 541 l 1,5,-1
 834 541 l 1,6,-1
 823 594 l 1,7,-1
 435 594 l 1,4,-1
EndSplineSet
EndChar

StartChar: greater
Encoding: 62 62 67
Width: 1005
VWidth: 1126
Flags: W
LayerCount: 2
Fore
SplineSet
540 -73 m 1,0,-1
 977 316 l 1,1,-1
 700 641 l 1,2,-1
 689 628 l 1,3,-1
 947 307 l 1,4,-1
 528 -59 l 1,5,-1
 540 -73 l 1,0,-1
EndSplineSet
EndChar

StartChar: question
Encoding: 63 63 68
Width: 836
VWidth: 1038
Flags: W
LayerCount: 2
Fore
SplineSet
616 665 m 1,0,1
 644 690 644 690 680 690 c 0,2,3
 727 690 727 690 744 658 c 0,4,5
 756 633 756 633 746 592 c 0,6,7
 734 542 734 542 694 514 c 0,8,9
 656 488 656 488 608 488 c 0,10,11
 545 488 545 488 508 540 c 0,12,13
 462 604 462 604 487 710 c 0,14,15
 510 810 510 810 605 877 c 0,16,17
 699 945 699 945 797 945 c 0,18,19
 909 945 909 945 966 864 c 0,20,21
 1023 783 1023 783 995 663 c 0,22,23
 967 540 967 540 790 389 c 0,24,25
 659 278 659 278 629 230 c 0,26,27
 623 222 623 222 622 217 c 0,28,29
 614 181 614 181 626 155 c 0,30,31
 630 148 630 148 640 137 c 2,32,-1
 663 116 l 1,33,-1
 521 29 l 1,34,-1
 511 46 l 2,35,36
 500 66 500 66 493 88 c 0,37,38
 476 146 476 146 491 212 c 0,39,40
 501 254 501 254 556 319 c 0,41,42
 619 395 619 395 748 510 c 0,43,44
 845 595 845 595 860 663 c 0,45,46
 872 715 872 715 843 759 c 128,-1,47
 814 803 814 803 766 803 c 0,48,49
 717 803 717 803 676 774 c 0,50,51
 635 746 635 746 618 707 c 0,52,53
 614 698 614 698 613 692 c 0,54,55
 609 674 609 674 616 665 c 1,0,1
662 603 m 0,56,57
 660 601 660 601 659 598 c 0,58,59
 659 596 659 596 658 593 c 128,-1,60
 657 590 657 590 659 588 c 0,61,62
 660 587 660 587 662.5 587 c 128,-1,63
 665 587 665 587 667 588 c 0,64,65
 668 590 668 590 669.5 595 c 128,-1,66
 671 600 671 600 669 603 c 0,67,68
 668 604 668 604 666 603 c 0,69,70
 664 604 664 604 662 603 c 0,56,57
667 587 m 1,71,-1
 667 587 l 1,71,-1
659 588 m 1,72,-1
 659 588 l 1,72,-1
557 5 m 0,73,74
 601 5 601 5 618 -30 c 0,75,76
 636 -64 636 -64 625.5 -110 c 128,-1,77
 615 -156 615 -156 590 -182 c 0,78,79
 557 -218 557 -218 507.5 -218 c 128,-1,80
 458 -218 458 -218 439 -187 c 128,-1,81
 420 -156 420 -156 431 -109 c 128,-1,82
 442 -62 442 -62 472 -30 c 0,83,84
 506 5 506 5 557 5 c 0,73,74
549 -85 m 0,85,86
 546 -80 546 -80 539 -81 c 0,87,88
 531 -81 531 -81 527 -85 c 0,89,90
 521 -91 521 -91 517 -102 c 0,91,92
 514 -113 514 -113 518 -118 c 0,93,94
 521 -123 521 -123 531 -123 c 0,95,96
 540 -123 540 -123 544 -119 c 128,-1,97
 548 -115 548 -115 550 -104 c 0,98,99
 553 -92 553 -92 549 -85 c 0,85,86
EndSplineSet
EndChar

StartChar: at
Encoding: 64 64 69
Width: 819
VWidth: 1051
Flags: W
LayerCount: 2
Fore
SplineSet
569 248 m 1,0,-1
 606 152 l 1,1,-1
 462 49 l 1,2,-1
 372 55 l 1,3,-1
 332 168 l 1,4,-1
 378 297 l 1,5,-1
 340 285 l 1,6,-1
 305 165 l 1,7,-1
 329 35 l 1,8,-1
 432 20 l 1,9,-1
 611 154 l 1,10,-1
 639 44 l 1,11,-1
 650 43 l 1,12,-1
 578 254 l 1,13,-1
 569 248 l 1,0,-1
162 234 m 0,14,15
 171 272 171 272 191 311 c 0,16,17
 307 529 307 529 467 568 c 0,18,19
 495 575 495 575 519 575 c 0,20,21
 522 575 522 575 525 575 c 0,22,23
 643 575 643 575 700 439 c 0,24,25
 753 312 753 312 717 155 c 0,26,27
 707 112 707 112 690 66 c 2,28,-1
 680 39 l 1,29,-1
 711 35 l 1,30,31
 727 84 727 84 737 129 c 0,32,33
 786 342 786 342 711 477 c 0,34,35
 639 607 639 607 529 607 c 0,36,37
 528 607 528 607 527 607 c 0,38,39
 495 607 495 607 461 597 c 0,40,41
 302 549 302 549 192 339 c 0,42,43
 170 297 170 297 159 253 c 0,44,45
 121 87 121 87 263 -98 c 1,46,-1
 306 -85 l 1,47,48
 124 68 124 68 162 234 c 0,14,15
EndSplineSet
EndChar
